<svg width="166" height="17" viewBox="0 0 166 17" fill="none" xmlns="http://www.w3.org/2000/svg">
<path d="M11.4 3.94L8.14 15.24H7.96L4.7 4.18L3.08 11.64C2.90667 12.44 2.82 13.06 2.82 13.5C2.83333 13.94 2.91333 14.2667 3.06 14.48C3.22 14.6933 3.43333 14.8267 3.7 14.88C3.96667 14.9333 4.27333 14.9733 4.62 15H0.1C0.513333 14.96 0.86 14.9 1.14 14.82C1.43333 14.74 1.68 14.58 1.88 14.34C2.09333 14.1 2.28 13.76 2.44 13.32C2.61333 12.8667 2.78667 12.26 2.96 11.5L5.34 0.699999H5.44L8.8 12.36L12.18 0.699999H12.28C12.36 0.939999 12.4733 1.39333 12.62 2.06C12.7667 2.72667 12.9267 3.5 13.1 4.38C13.2867 5.24667 13.48 6.16 13.68 7.12C13.88 8.08 14.06 8.97333 14.22 9.8C14.3933 10.6133 14.5333 11.3067 14.64 11.88C14.76 12.4533 14.8333 12.78 14.86 12.86C15.0733 13.62 15.3667 14.1533 15.74 14.46C16.1267 14.7533 16.64 14.9333 17.28 15H11.7C12.3 14.9467 12.7333 14.7667 13 14.46C13.2667 14.14 13.3333 13.64 13.2 12.96L11.4 3.94ZM20.7828 11.66C20.5428 12.4333 20.4028 13.04 20.3628 13.48C20.3228 13.92 20.3628 14.2467 20.4828 14.46C20.6028 14.6733 20.7895 14.8133 21.0428 14.88C21.3095 14.9333 21.6095 14.9733 21.9428 15H17.6828C18.0961 14.96 18.4361 14.9 18.7028 14.82C18.9828 14.7267 19.2228 14.56 19.4228 14.32C19.6361 14.0667 19.8361 13.72 20.0228 13.28C20.2095 12.8267 20.4228 12.2267 20.6628 11.48L24.0428 0.719999H24.1428L28.0028 12.88C28.1361 13.32 28.2761 13.6733 28.4228 13.94C28.5695 14.1933 28.7428 14.3933 28.9428 14.54C29.1428 14.6867 29.3761 14.7933 29.6428 14.86C29.9228 14.9133 30.2561 14.96 30.6428 15H24.9428C25.6095 14.9333 26.0495 14.7267 26.2628 14.38C26.4895 14.0333 26.4895 13.5 26.2628 12.78L25.5628 10.46H21.1428L20.7828 11.66ZM21.2028 10.3H25.5028L23.3828 3.32L21.2028 10.3ZM42.0264 14.76C41.8531 14.9067 41.6397 15.02 41.3864 15.1C41.1464 15.18 40.8997 15.22 40.6464 15.22C40.3931 15.22 40.1464 15.1867 39.9064 15.12C39.6797 15.0667 39.4597 14.96 39.2464 14.8C39.0331 14.64 38.8264 14.4133 38.6264 14.12C38.4264 13.8133 38.2331 13.42 38.0464 12.94C37.8597 12.4733 37.6797 12.1 37.5064 11.82C37.3331 11.5267 37.1531 11.3 36.9664 11.14C36.7931 10.98 36.6131 10.8733 36.4264 10.82C36.2397 10.7533 36.0397 10.72 35.8264 10.72V10.68C36.5731 10.68 37.1931 10.4467 37.6864 9.98C38.1931 9.51333 38.5731 8.92667 38.8264 8.22C39.0797 7.51333 39.2064 6.75333 39.2064 5.94C39.2064 5.11333 39.0797 4.34667 38.8264 3.64C38.5864 2.93333 38.2131 2.34667 37.7064 1.88C37.1997 1.41333 36.5731 1.18 35.8264 1.18H35.7864C35.5864 1.18 35.4131 1.2 35.2664 1.24C35.1331 1.26667 35.0197 1.34 34.9264 1.46C34.8464 1.58 34.7864 1.75333 34.7464 1.98C34.7064 2.19333 34.6864 2.48667 34.6864 2.86V13.06C34.6864 13.4733 34.7197 13.8 34.7864 14.04C34.8664 14.28 34.9664 14.4667 35.0864 14.6C35.2197 14.7333 35.3797 14.8267 35.5664 14.88C35.7531 14.9333 35.9597 14.9733 36.1864 15H31.5664C31.7931 14.9733 31.9997 14.9333 32.1864 14.88C32.3731 14.8267 32.5264 14.7333 32.6464 14.6C32.7797 14.4667 32.8797 14.28 32.9464 14.04C33.0264 13.8 33.0664 13.4733 33.0664 13.06V2.94C33.0664 2.52667 33.0264 2.2 32.9464 1.96C32.8797 1.72 32.7797 1.53333 32.6464 1.4C32.5264 1.26667 32.3731 1.17333 32.1864 1.12C31.9997 1.06667 31.7931 1.02667 31.5664 0.999999H35.8264C36.9197 0.999999 37.8331 1.23333 38.5664 1.7C39.3131 2.15333 39.8797 2.73333 40.2664 3.44C40.6664 4.13333 40.8864 4.89333 40.9264 5.72C40.9797 6.54667 40.8531 7.32 40.5464 8.04C40.2531 8.74667 39.7864 9.35333 39.1464 9.86C38.5197 10.3667 37.7264 10.6467 36.7664 10.7C37.5531 10.7667 38.1597 10.96 38.5864 11.28C39.0131 11.6 39.3997 12.1267 39.7464 12.86C40.0797 13.5533 40.3797 14.06 40.6464 14.38C40.9264 14.6867 41.2331 14.84 41.5664 14.84C41.7264 14.84 41.8797 14.8133 42.0264 14.76ZM45.9211 13.06C45.9211 13.4733 45.9544 13.8 46.0211 14.04C46.1011 14.28 46.2078 14.4667 46.3411 14.6C46.4744 14.7333 46.6344 14.8267 46.8211 14.88C47.0078 14.9333 47.2078 14.9733 47.4211 15H42.8211C43.0478 14.9733 43.2544 14.9333 43.4411 14.88C43.6278 14.8267 43.7811 14.7333 43.9011 14.6C44.0344 14.4667 44.1344 14.28 44.2011 14.04C44.2811 13.8 44.3211 13.4733 44.3211 13.06V2.94C44.3211 2.52667 44.2811 2.2 44.2011 1.96C44.1344 1.72 44.0344 1.53333 43.9011 1.4C43.7811 1.26667 43.6278 1.17333 43.4411 1.12C43.2544 1.06667 43.0478 1.02667 42.8211 0.999999H47.4211C47.2078 1.02667 47.0078 1.06667 46.8211 1.12C46.6344 1.17333 46.4744 1.26667 46.3411 1.4C46.2078 1.53333 46.1011 1.72 46.0211 1.96C45.9544 2.2 45.9211 2.52667 45.9211 2.94V13.06ZM59.3414 0.999999C58.9014 1.06667 58.5414 1.36667 58.2614 1.9C57.9814 2.43333 57.8414 3.11333 57.8414 3.94V15.26H57.6614L50.5414 2.64V12.06C50.5414 12.8867 50.6747 13.5667 50.9414 14.1C51.2214 14.6333 51.5814 14.9333 52.0214 15H48.8614C49.3147 14.9333 49.6747 14.6333 49.9414 14.1C50.2214 13.5667 50.3614 12.8867 50.3614 12.06V3.7C50.3614 2.87333 50.2347 2.26 49.9814 1.86C49.7414 1.44667 49.3681 1.16 48.8614 0.999999H51.5814L57.6814 11.72V3.94C57.6814 3.11333 57.5414 2.43333 57.2614 1.9C56.9814 1.36667 56.6214 1.06667 56.1814 0.999999H59.3414ZM63.3602 11.66C63.1202 12.4333 62.9802 13.04 62.9402 13.48C62.9002 13.92 62.9402 14.2467 63.0602 14.46C63.1802 14.6733 63.3668 14.8133 63.6202 14.88C63.8868 14.9333 64.1868 14.9733 64.5202 15H60.2602C60.6735 14.96 61.0135 14.9 61.2802 14.82C61.5602 14.7267 61.8002 14.56 62.0002 14.32C62.2135 14.0667 62.4135 13.72 62.6002 13.28C62.7868 12.8267 63.0002 12.2267 63.2402 11.48L66.6202 0.719999H66.7202L70.5802 12.88C70.7135 13.32 70.8535 13.6733 71.0002 13.94C71.1468 14.1933 71.3202 14.3933 71.5202 14.54C71.7202 14.6867 71.9535 14.7933 72.2202 14.86C72.5002 14.9133 72.8335 14.96 73.2202 15H67.5202C68.1868 14.9333 68.6268 14.7267 68.8402 14.38C69.0668 14.0333 69.0668 13.5 68.8402 12.78L68.1402 10.46H63.7202L63.3602 11.66ZM63.7802 10.3H68.0802L65.9602 3.32L63.7802 10.3ZM88.4038 11.2C88.4038 11.88 88.2704 12.48 88.0038 13C87.7504 13.5067 87.4038 13.9267 86.9638 14.26C86.5371 14.5933 86.0438 14.84 85.4838 15C84.9238 15.1733 84.3371 15.26 83.7238 15.26C82.8838 15.26 82.0438 15.1067 81.2038 14.8C80.3638 14.48 79.6438 14 79.0438 13.36L79.8038 10.3C79.8038 11.1267 79.9304 11.84 80.1838 12.44C80.4371 13.04 80.7638 13.54 81.1638 13.94C81.5771 14.3267 82.0371 14.6133 82.5438 14.8C83.0504 14.9867 83.5571 15.08 84.0638 15.08C84.4904 15.08 84.8971 15.02 85.2838 14.9C85.6838 14.7667 86.0371 14.5733 86.3438 14.32C86.6504 14.0667 86.8904 13.76 87.0638 13.4C87.2504 13.0267 87.3438 12.6 87.3438 12.12C87.3438 11.4133 87.1571 10.8133 86.7838 10.32C86.4104 9.82667 85.9438 9.38667 85.3838 9C84.8238 8.61333 84.2171 8.26 83.5638 7.94C82.9238 7.60667 82.3238 7.25333 81.7638 6.88C81.2038 6.50667 80.7371 6.08667 80.3638 5.62C79.9904 5.14 79.8038 4.56 79.8038 3.88C79.8038 3.32 79.9104 2.84 80.1238 2.44C80.3504 2.02667 80.6438 1.69333 81.0038 1.44C81.3771 1.17333 81.7971 0.98 82.2638 0.86C82.7304 0.74 83.2104 0.68 83.7038 0.68C84.3704 0.68 85.0104 0.779999 85.6238 0.979999C86.2371 1.18 86.7438 1.45333 87.1438 1.8L86.8638 4.32C86.8638 3.73333 86.7571 3.22667 86.5438 2.8C86.3304 2.36 86.0504 2 85.7038 1.72C85.3571 1.44 84.9704 1.23333 84.5438 1.1C84.1171 0.966666 83.6904 0.899999 83.2638 0.899999C82.9171 0.899999 82.5838 0.946666 82.2638 1.04C81.9571 1.12 81.6838 1.24667 81.4438 1.42C81.2038 1.58 81.0104 1.78667 80.8638 2.04C80.7171 2.29333 80.6438 2.58 80.6438 2.9C80.6438 3.47333 80.8304 3.97333 81.2038 4.4C81.5904 4.82667 82.0704 5.22667 82.6438 5.6C83.2304 5.96 83.8571 6.31333 84.5238 6.66C85.1904 7.00667 85.8104 7.39333 86.3838 7.82C86.9704 8.23333 87.4504 8.71333 87.8238 9.26C88.2104 9.79333 88.4038 10.44 88.4038 11.2ZM97.8689 14.98V15H89.1289C89.3556 14.9733 89.5622 14.9333 89.7489 14.88C89.9356 14.8267 90.0889 14.7333 90.2089 14.6C90.3422 14.4667 90.4422 14.28 90.5089 14.04C90.5889 13.8 90.6289 13.4733 90.6289 13.06V2.94C90.6289 2.52667 90.5889 2.2 90.5089 1.96C90.4422 1.72 90.3422 1.53333 90.2089 1.4C90.0889 1.26667 89.9356 1.17333 89.7489 1.12C89.5622 1.06667 89.3556 1.02667 89.1289 0.999999H97.6289L98.2089 4.4C98.1556 4.24 98.0756 3.98 97.9689 3.62C97.8756 3.26 97.7022 2.9 97.4489 2.54C97.1956 2.18 96.8422 1.86667 96.3889 1.6C95.9356 1.32 95.3222 1.18 94.5489 1.18H92.2289V7.54H94.8489C95.1689 7.54 95.4222 7.48 95.6089 7.36C95.7956 7.22667 95.9356 7.06667 96.0289 6.88C96.1356 6.69333 96.2089 6.49333 96.2489 6.28C96.3022 6.05333 96.3422 5.84667 96.3689 5.66V9.6C96.3422 9.41333 96.3022 9.21333 96.2489 9C96.2089 8.78667 96.1356 8.58667 96.0289 8.4C95.9356 8.2 95.7956 8.04 95.6089 7.92C95.4222 7.78667 95.1689 7.72 94.8489 7.72H92.2289V13.14C92.2289 13.5133 92.2422 13.8133 92.2689 14.04C92.3089 14.2533 92.3889 14.42 92.5089 14.54C92.6289 14.66 92.8089 14.74 93.0489 14.78C93.3022 14.8067 93.6422 14.82 94.0689 14.82H94.7889C95.5622 14.82 96.1756 14.6867 96.6289 14.42C97.0822 14.14 97.4356 13.82 97.6889 13.46C97.9422 13.1 98.1156 12.74 98.2089 12.38C98.3156 12.02 98.3956 11.76 98.4489 11.6L97.8689 14.98ZM109.655 3.94L106.395 15.24H106.215L102.955 4.18L101.335 11.64C101.162 12.44 101.075 13.06 101.075 13.5C101.089 13.94 101.169 14.2667 101.315 14.48C101.475 14.6933 101.689 14.8267 101.955 14.88C102.222 14.9333 102.529 14.9733 102.875 15H98.3555C98.7688 14.96 99.1155 14.9 99.3955 14.82C99.6888 14.74 99.9355 14.58 100.135 14.34C100.349 14.1 100.535 13.76 100.695 13.32C100.869 12.8667 101.042 12.26 101.215 11.5L103.595 0.699999H103.695L107.055 12.36L110.435 0.699999H110.535C110.615 0.939999 110.729 1.39333 110.875 2.06C111.022 2.72667 111.182 3.5 111.355 4.38C111.542 5.24667 111.735 6.16 111.935 7.12C112.135 8.08 112.315 8.97333 112.475 9.8C112.649 10.6133 112.789 11.3067 112.895 11.88C113.015 12.4533 113.089 12.78 113.115 12.86C113.329 13.62 113.622 14.1533 113.995 14.46C114.382 14.7533 114.895 14.9333 115.535 15H109.955C110.555 14.9467 110.989 14.7667 111.255 14.46C111.522 14.14 111.589 13.64 111.455 12.96L109.655 3.94ZM118.538 13.06C118.538 13.4733 118.571 13.8 118.638 14.04C118.718 14.28 118.824 14.4667 118.958 14.6C119.091 14.7333 119.251 14.8267 119.438 14.88C119.624 14.9333 119.824 14.9733 120.038 15H115.438C115.664 14.9733 115.871 14.9333 116.058 14.88C116.244 14.8267 116.398 14.7333 116.518 14.6C116.651 14.4667 116.751 14.28 116.818 14.04C116.898 13.8 116.938 13.4733 116.938 13.06V2.94C116.938 2.52667 116.898 2.2 116.818 1.96C116.751 1.72 116.651 1.53333 116.518 1.4C116.398 1.26667 116.244 1.17333 116.058 1.12C115.871 1.06667 115.664 1.02667 115.438 0.999999H120.038C119.824 1.02667 119.624 1.06667 119.438 1.12C119.251 1.17333 119.091 1.26667 118.958 1.4C118.824 1.53333 118.718 1.72 118.638 1.96C118.571 2.2 118.538 2.52667 118.538 2.94V13.06ZM124.378 13.24C124.378 13.8933 124.278 14.44 124.078 14.88C123.891 15.32 123.651 15.68 123.358 15.96C123.064 16.2533 122.738 16.4733 122.378 16.62C122.031 16.7667 121.698 16.8667 121.378 16.92L121.358 16.86C121.664 16.7533 121.904 16.6067 122.078 16.42C122.264 16.2467 122.404 16.0133 122.498 15.72C122.604 15.44 122.671 15.1 122.698 14.7C122.738 14.2867 122.758 13.8 122.758 13.24V2.94C122.758 2.52667 122.718 2.2 122.638 1.96C122.571 1.72 122.471 1.53333 122.338 1.4C122.218 1.26667 122.064 1.17333 121.878 1.12C121.691 1.06667 121.484 1.02667 121.258 0.999999H125.878C125.651 1.02667 125.444 1.06667 125.258 1.12C125.071 1.17333 124.911 1.26667 124.778 1.4C124.658 1.53333 124.558 1.72 124.478 1.96C124.411 2.2 124.378 2.52667 124.378 2.94V13.24ZM141.183 8C141.183 9.21333 140.969 10.28 140.543 11.2C140.129 12.1067 139.576 12.8667 138.883 13.48C138.203 14.08 137.423 14.5333 136.543 14.84C135.676 15.1467 134.789 15.3 133.883 15.3C132.963 15.3 132.063 15.1467 131.183 14.84C130.316 14.5333 129.543 14.08 128.863 13.48C128.183 12.8667 127.629 12.1067 127.203 11.2C126.789 10.28 126.583 9.21333 126.583 8C126.583 6.77333 126.789 5.70667 127.203 4.8C127.629 3.89333 128.183 3.13333 128.863 2.52C129.556 1.90667 130.336 1.45333 131.203 1.16C132.083 0.853333 132.976 0.699999 133.883 0.699999C134.803 0.699999 135.696 0.853333 136.563 1.16C137.443 1.45333 138.223 1.90667 138.903 2.52C139.583 3.13333 140.129 3.89333 140.543 4.8C140.969 5.70667 141.183 6.77333 141.183 8ZM128.183 6.72C128.183 8.12 128.369 9.34 128.743 10.38C129.116 11.4067 129.596 12.2667 130.183 12.96C130.783 13.6533 131.456 14.1733 132.203 14.52C132.963 14.8533 133.723 15.02 134.483 15.02C135.136 15.02 135.769 14.8933 136.383 14.64C136.996 14.3867 137.536 14.0067 138.003 13.5C138.483 12.9933 138.863 12.3667 139.143 11.62C139.436 10.8733 139.583 10 139.583 9C139.596 7.68 139.409 6.52 139.023 5.52C138.649 4.50667 138.149 3.66667 137.523 3C136.909 2.33333 136.216 1.83333 135.443 1.5C134.669 1.15333 133.896 0.979999 133.123 0.979999C132.483 0.979999 131.863 1.1 131.263 1.34C130.663 1.56667 130.136 1.92 129.683 2.4C129.229 2.88 128.863 3.48 128.583 4.2C128.316 4.92 128.183 5.76 128.183 6.72ZM145.198 13.06C145.198 13.4733 145.231 13.8 145.298 14.04C145.378 14.28 145.484 14.4667 145.618 14.6C145.751 14.7333 145.911 14.8267 146.098 14.88C146.284 14.9333 146.484 14.9733 146.698 15H142.098C142.324 14.9733 142.531 14.9333 142.718 14.88C142.904 14.8267 143.058 14.7333 143.178 14.6C143.311 14.4667 143.411 14.28 143.478 14.04C143.558 13.8 143.598 13.4733 143.598 13.06V2.94C143.598 2.52667 143.558 2.2 143.478 1.96C143.411 1.72 143.311 1.53333 143.178 1.4C143.058 1.26667 142.904 1.17333 142.718 1.12C142.531 1.06667 142.324 1.02667 142.098 0.999999H146.698C146.484 1.02667 146.284 1.06667 146.098 1.12C145.911 1.17333 145.751 1.26667 145.618 1.4C145.484 1.53333 145.378 1.72 145.298 1.96C145.231 2.2 145.198 2.52667 145.198 2.94V13.06ZM165.577 11.18C165.577 11.8733 165.444 12.4933 165.177 13.04C164.911 13.5733 164.551 14.0333 164.097 14.42C163.657 14.7933 163.144 15.08 162.557 15.28C161.984 15.48 161.384 15.58 160.757 15.58C160.144 15.58 159.524 15.48 158.897 15.28C158.284 15.0933 157.704 14.8 157.157 14.4C156.611 14 156.111 13.4933 155.657 12.88C155.204 12.2667 154.844 11.5333 154.577 10.68L154.497 10.46H150.097L149.717 11.68L149.737 11.64C149.497 12.4133 149.357 13.02 149.317 13.46C149.277 13.9 149.317 14.2333 149.437 14.46C149.557 14.6733 149.744 14.8133 149.997 14.88C150.251 14.9333 150.551 14.9733 150.897 15H146.637C147.037 14.96 147.371 14.9 147.637 14.82C147.917 14.7267 148.164 14.56 148.377 14.32C148.591 14.0667 148.791 13.72 148.977 13.28C149.164 12.8267 149.377 12.2267 149.617 11.48L152.997 0.719999H153.097L156.057 10.06C156.324 10.98 156.657 11.7733 157.057 12.44C157.471 13.0933 157.917 13.6333 158.397 14.06C158.877 14.4733 159.377 14.78 159.897 14.98C160.431 15.18 160.944 15.28 161.437 15.28C161.864 15.28 162.271 15.2067 162.657 15.06C163.044 14.9267 163.377 14.7333 163.657 14.48C163.951 14.2267 164.177 13.9133 164.337 13.54C164.511 13.1667 164.597 12.7533 164.597 12.3C164.597 11.62 164.411 11.04 164.037 10.56C163.664 10.0667 163.197 9.63333 162.637 9.26C162.077 8.87333 161.464 8.51333 160.797 8.18C160.144 7.83333 159.537 7.46667 158.977 7.08C158.417 6.68 157.951 6.24 157.577 5.76C157.204 5.26667 157.017 4.67333 157.017 3.98C157.017 3.42 157.124 2.94 157.337 2.54C157.564 2.12667 157.857 1.79333 158.217 1.54C158.591 1.27333 159.011 1.08 159.477 0.96C159.944 0.84 160.424 0.779999 160.917 0.779999C161.584 0.779999 162.224 0.879999 162.837 1.08C163.451 1.28 163.957 1.55333 164.357 1.9L164.077 4.42C164.077 3.82 163.984 3.3 163.797 2.86C163.624 2.42 163.391 2.06 163.097 1.78C162.817 1.48667 162.497 1.27333 162.137 1.14C161.777 0.993332 161.411 0.919999 161.037 0.919999C160.704 0.919999 160.377 0.979999 160.057 1.1C159.737 1.20667 159.451 1.36667 159.197 1.58C158.944 1.78 158.744 2.03333 158.597 2.34C158.451 2.64667 158.377 3 158.377 3.4C158.377 3.96 158.551 4.45333 158.897 4.88C159.257 5.29333 159.704 5.67333 160.237 6.02C160.771 6.36667 161.351 6.70667 161.977 7.04C162.604 7.36 163.184 7.71333 163.717 8.1C164.251 8.48667 164.691 8.92667 165.037 9.42C165.397 9.91333 165.577 10.5 165.577 11.18ZM150.137 10.3H154.457L152.337 3.32L150.137 10.3Z" fill="#AD8003"/>
<path d="M11.4 3.94L11.6452 3.89107L11.1598 3.8707L11.4 3.94ZM8.14 15.24V15.49H8.32807L8.3802 15.3093L8.14 15.24ZM7.96 15.24L7.7202 15.3107L7.77306 15.49H7.96V15.24ZM4.7 4.18L4.9398 4.10932L4.45569 4.12695L4.7 4.18ZM3.08 11.64L2.83569 11.5869L2.83567 11.5871L3.08 11.64ZM2.82 13.5H2.56989L2.57011 13.5076L2.82 13.5ZM3.06 14.48L2.85381 14.6218L2.86 14.63L3.06 14.48ZM3.7 14.88L3.65097 15.1251L3.7 14.88ZM4.62 15V15.25L4.63917 14.7507L4.62 15ZM0.1 15L0.075919 14.7512L0.1 15.25V15ZM1.14 14.82L1.07422 14.5788L1.07132 14.5796L1.14 14.82ZM1.88 14.34L1.69305 14.1738L1.68794 14.18L1.88 14.34ZM2.44 13.32L2.20646 13.2307L2.20505 13.2346L2.44 13.32ZM2.96 11.5L3.20375 11.5556L3.20414 11.5538L2.96 11.5ZM5.34 0.699999V0.449999H5.13909L5.09586 0.646198L5.34 0.699999ZM5.44 0.699999L5.68023 0.630775L5.62813 0.449999H5.44V0.699999ZM8.8 12.36L8.55978 12.4292L8.79929 13.2604L9.04012 12.4296L8.8 12.36ZM12.18 0.699999V0.449999H11.9922L11.9399 0.630395L12.18 0.699999ZM12.28 0.699999L12.5172 0.620943L12.4602 0.449999H12.28V0.699999ZM12.62 2.06L12.8642 2.00628H12.8642L12.62 2.06ZM13.1 4.38L12.8547 4.42832L12.8556 4.43264L13.1 4.38ZM13.68 7.12L13.4353 7.17099L13.68 7.12ZM14.22 9.8L13.9745 9.84751L13.9755 9.85211L14.22 9.8ZM14.64 11.88L14.3942 11.9257L14.3953 11.9312L14.64 11.88ZM14.86 12.86L15.101 12.7924L15.0972 12.7809L14.86 12.86ZM15.74 14.46L15.5812 14.6533L15.5889 14.6592L15.74 14.46ZM17.28 15V15.25L17.3059 14.7513L17.28 15ZM11.7 15L11.6779 14.751L11.7 15.25V15ZM13 14.46L13.1887 14.6241L13.1921 14.62L13 14.46ZM13.2 12.96L13.4453 12.9119L13.4452 12.9111L13.2 12.96ZM11.1598 3.8707L7.8998 15.1707L8.3802 15.3093L11.6402 4.0093L11.1598 3.8707ZM8.14 14.99H7.96V15.49H8.14V14.99ZM8.1998 15.1693L4.9398 4.10932L4.4602 4.25068L7.7202 15.3107L8.1998 15.1693ZM4.45569 4.12695L2.83569 11.5869L3.32431 11.6931L4.94431 4.23305L4.45569 4.12695ZM2.83567 11.5871C2.6612 12.3923 2.57 13.033 2.57 13.5H3.07C3.07 13.087 3.15214 12.4877 3.32433 11.6929L2.83567 11.5871ZM2.57011 13.5076C2.584 13.9657 2.6671 14.3498 2.85399 14.6216L3.26601 14.3384C3.15956 14.1835 3.08267 13.9143 3.06989 13.4924L2.57011 13.5076ZM2.86 14.63C3.0577 14.8936 3.32531 15.06 3.65097 15.1251L3.74903 14.6349C3.54136 14.5933 3.3823 14.4931 3.26 14.33L2.86 14.63ZM3.65097 15.1251C3.92977 15.1809 4.24674 15.222 4.60083 15.2493L4.63917 14.7507C4.29993 14.7246 4.00357 14.6858 3.74903 14.6349L3.65097 15.1251ZM4.62 14.75H0.1V15.25H4.62V14.75ZM0.124081 15.2488C0.546705 15.2079 0.909402 15.1459 1.20868 15.0604L1.07132 14.5796C0.810598 14.6541 0.479961 14.7121 0.075919 14.7512L0.124081 15.2488ZM1.20578 15.0612C1.54995 14.9673 1.84023 14.7782 2.07206 14.5L1.68794 14.18C1.51977 14.3818 1.31671 14.5127 1.07422 14.5788L1.20578 15.0612ZM2.06685 14.5061C2.30845 14.2343 2.50867 13.8627 2.67495 13.4054L2.20505 13.2346C2.05133 13.6573 1.87822 13.9657 1.69315 14.1739L2.06685 14.5061ZM2.67351 13.4093C2.85278 12.9404 3.02916 12.3211 3.20374 11.5556L2.71626 11.4444C2.54418 12.1989 2.37389 12.7929 2.20649 13.2307L2.67351 13.4093ZM3.20414 11.5538L5.58414 0.753801L5.09586 0.646198L2.71586 11.4462L3.20414 11.5538ZM5.34 0.949999H5.44V0.449999H5.34V0.949999ZM5.19978 0.769224L8.55978 12.4292L9.04023 12.2908L5.68023 0.630775L5.19978 0.769224ZM9.04012 12.4296L12.4201 0.769604L11.9399 0.630395L8.55989 12.2904L9.04012 12.4296ZM12.18 0.949999H12.28V0.449999H12.18V0.949999ZM12.0428 0.779056C12.1181 1.00484 12.2289 1.44592 12.3758 2.11372L12.8642 2.00628C12.7177 1.34074 12.6019 0.875158 12.5172 0.620943L12.0428 0.779056ZM12.3758 2.11372C12.522 2.77813 12.6816 3.5496 12.8547 4.42831L13.3453 4.33169C13.1717 3.4504 13.0113 2.6752 12.8642 2.00628L12.3758 2.11372ZM12.8556 4.43264C13.0421 5.2987 13.2354 6.21148 13.4353 7.17099L13.9247 7.06901C13.7246 6.10852 13.5312 5.19463 13.3444 4.32736L12.8556 4.43264ZM13.4353 7.17099C13.6351 8.13001 13.8148 9.02217 13.9746 9.8475L14.4654 9.75249C14.3052 8.92449 14.1249 8.02999 13.9247 7.06901L13.4353 7.17099ZM13.9755 9.85211C14.1485 10.6641 14.2881 11.3552 14.3942 11.9257L14.8858 11.8343C14.7786 11.2581 14.6381 10.5625 14.4645 9.74789L13.9755 9.85211ZM14.3953 11.9312C14.5132 12.4946 14.5903 12.8414 14.6228 12.9391L15.0972 12.7809C15.0764 12.7186 15.0068 12.4121 14.8847 11.8288L14.3953 11.9312ZM14.6193 12.9276C14.8385 13.7084 15.1505 14.2993 15.5813 14.6532L15.8987 14.2668C15.5828 14.0074 15.3082 13.5316 15.1007 12.7924L14.6193 12.9276ZM15.5889 14.6592C16.022 14.9877 16.583 15.1788 17.2541 15.2487L17.3059 14.7513C16.697 14.6879 16.2313 14.5189 15.8911 14.2608L15.5889 14.6592ZM17.28 14.75H11.7V15.25H17.28V14.75ZM11.7221 15.249C12.3559 15.1927 12.8629 14.9986 13.1887 14.624L12.8113 14.296C12.6037 14.5347 12.2441 14.7006 11.6779 14.751L11.7221 15.249ZM13.1921 14.62C13.5313 14.213 13.5837 13.6178 13.4453 12.9119L12.9547 13.0081C13.0829 13.6622 13.0021 14.067 12.8079 14.3L13.1921 14.62ZM13.4452 12.9111L11.6452 3.89107L11.1548 3.98892L12.9548 13.0089L13.4452 12.9111ZM20.7828 11.66L21.0216 11.7341L21.0223 11.7318L20.7828 11.66ZM20.3628 13.48L20.6118 13.5026L20.3628 13.48ZM20.4828 14.46L20.2649 14.5826L20.4828 14.46ZM21.0428 14.88L20.9792 15.1218L20.9864 15.1237L20.9938 15.1251L21.0428 14.88ZM21.9428 15V15.25L21.9627 14.7508L21.9428 15ZM17.6828 15L17.6587 14.7512L17.6828 15.25V15ZM18.7028 14.82L18.7747 15.0596L18.7819 15.0572L18.7028 14.82ZM19.4228 14.32L19.2316 14.159L19.2308 14.16L19.4228 14.32ZM20.0228 13.28L20.253 13.3776L20.254 13.3752L20.0228 13.28ZM20.6628 11.48L20.9008 11.5565L20.9013 11.5549L20.6628 11.48ZM24.0428 0.719999V0.469999H23.8593L23.8043 0.645077L24.0428 0.719999ZM24.1428 0.719999L24.3811 0.64436L24.3257 0.469999H24.1428V0.719999ZM28.0028 12.88L28.2421 12.8075L28.2411 12.8044L28.0028 12.88ZM28.4228 13.94L28.2037 14.0605L28.2065 14.0653L28.4228 13.94ZM28.9428 14.54L29.0907 14.3384L28.9428 14.54ZM29.6428 14.86L29.5822 15.1025L29.5891 15.1043L29.596 15.1056L29.6428 14.86ZM30.6428 15V15.25L30.6685 14.7513L30.6428 15ZM24.9428 15L24.9179 14.7512L24.9428 15.25V15ZM26.2628 14.38L26.0535 14.2431L26.0499 14.249L26.2628 14.38ZM26.2628 12.78L26.0235 12.8522L26.0244 12.8551L26.2628 12.78ZM25.5628 10.46L25.8022 10.3878L25.7485 10.21H25.5628V10.46ZM21.1428 10.46V10.21H20.9568L20.9034 10.3882L21.1428 10.46ZM21.2028 10.3L20.9642 10.2255L20.8628 10.55H21.2028V10.3ZM25.5028 10.3V10.55H25.84L25.742 10.2273L25.5028 10.3ZM23.3828 3.32L23.622 3.24734L23.3861 2.47073L23.1442 3.24547L23.3828 3.32ZM20.544 11.5859C20.3024 12.3646 20.1562 12.9911 20.1138 13.4574L20.6118 13.5026C20.6494 13.0889 20.7832 12.5021 21.0216 11.7341L20.544 11.5859ZM20.1138 13.4574C20.0725 13.9125 20.1071 14.3019 20.2649 14.5826L20.7007 14.3374C20.6186 14.1914 20.5732 13.9275 20.6118 13.5026L20.1138 13.4574ZM20.2649 14.5826C20.4206 14.8593 20.6655 15.0392 20.9792 15.1218L21.1064 14.6382C20.9134 14.5874 20.785 14.4873 20.7007 14.3374L20.2649 14.5826ZM20.9938 15.1251C21.2719 15.1808 21.5819 15.2219 21.9229 15.2492L21.9627 14.7508C21.6371 14.7247 21.347 14.6859 21.0918 14.6349L20.9938 15.1251ZM21.9428 14.75H17.6828V15.25H21.9428V14.75ZM17.7069 15.2488C18.1293 15.208 18.4868 15.1458 18.7747 15.0595L18.631 14.5805C18.3855 14.6542 18.0629 14.712 17.6587 14.7512L17.7069 15.2488ZM18.7819 15.0572C19.1086 14.9483 19.3869 14.7536 19.6149 14.48L19.2308 14.16C19.0587 14.3664 18.857 14.5051 18.6238 14.5828L18.7819 15.0572ZM19.614 14.481C19.8488 14.2022 20.0605 13.8314 20.253 13.3776L19.7927 13.1824C19.6118 13.6086 19.4235 13.9311 19.2316 14.159L19.614 14.481ZM20.254 13.3752C20.4442 12.9132 20.6598 12.3062 20.9008 11.5565L20.4248 11.4035C20.1858 12.1471 19.9748 12.7401 19.7916 13.1848L20.254 13.3752ZM20.9013 11.5549L24.2813 0.794921L23.8043 0.645077L20.4243 11.4051L20.9013 11.5549ZM24.0428 0.969999H24.1428V0.469999H24.0428V0.969999ZM23.9045 0.795638L27.7645 12.9556L28.2411 12.8044L24.3811 0.64436L23.9045 0.795638ZM27.7636 12.9525C27.8997 13.4016 28.0456 13.773 28.2038 14.0605L28.6419 13.8195C28.5067 13.5737 28.3726 13.2384 28.2421 12.8075L27.7636 12.9525ZM28.2065 14.0653C28.3674 14.3432 28.5625 14.5711 28.795 14.7416L29.0907 14.3384C28.9231 14.2155 28.7716 14.0435 28.6392 13.8147L28.2065 14.0653ZM28.795 14.7416C29.0238 14.9094 29.2875 15.0289 29.5822 15.1025L29.7034 14.6175C29.4648 14.5578 29.2618 14.4639 29.0907 14.3384L28.795 14.7416ZM29.596 15.1056C29.885 15.1606 30.2257 15.2082 30.6171 15.2487L30.6685 14.7513C30.2866 14.7118 29.9606 14.666 29.6896 14.6144L29.596 15.1056ZM30.6428 14.75H24.9428V15.25H30.6428V14.75ZM24.9677 15.2488C25.6622 15.1793 26.201 14.9575 26.4757 14.511L26.0499 14.249C25.898 14.4958 25.5568 14.6874 24.9179 14.7512L24.9677 15.2488ZM26.4721 14.5168C26.7633 14.0714 26.7331 13.4413 26.5013 12.7049L26.0244 12.8551C26.2458 13.5587 26.2157 13.9953 26.0536 14.2432L26.4721 14.5168ZM26.5022 12.7078L25.8022 10.3878L25.3235 10.5322L26.0235 12.8522L26.5022 12.7078ZM25.5628 10.21H21.1428V10.71H25.5628V10.21ZM20.9034 10.3882L20.5434 11.5882L21.0223 11.7318L21.3823 10.5318L20.9034 10.3882ZM21.2028 10.55H25.5028V10.05H21.2028V10.55ZM25.742 10.2273L23.622 3.24734L23.1436 3.39265L25.2636 10.3727L25.742 10.2273ZM23.1442 3.24547L20.9642 10.2255L21.4414 10.3745L23.6214 3.39453L23.1442 3.24547ZM42.0264 14.76L42.1879 14.9508L41.941 14.5251L42.0264 14.76ZM41.3864 15.1L41.3111 14.8616L41.3074 14.8628L41.3864 15.1ZM39.9064 15.12L39.9734 14.8789L39.9637 14.8766L39.9064 15.12ZM39.2464 14.8L39.3964 14.6L39.2464 14.8ZM38.6264 14.12L38.417 14.2566L38.4198 14.2608L38.6264 14.12ZM38.0464 12.94L38.2794 12.8494L38.2785 12.8472L38.0464 12.94ZM37.5064 11.82L37.2911 11.9472L37.2938 11.9516L37.5064 11.82ZM36.9664 11.14L36.7967 11.3238L36.8037 11.3298L36.9664 11.14ZM36.4264 10.82L36.3423 11.0554L36.3499 11.0582L36.3577 11.0604L36.4264 10.82ZM35.8264 10.72H35.5764V10.97H35.8264V10.72ZM35.8264 10.68V10.43H35.5764V10.68H35.8264ZM37.6864 9.98L37.517 9.7961L37.5146 9.79838L37.6864 9.98ZM38.8264 8.22L38.5911 8.13563L38.8264 8.22ZM38.8264 3.64L38.5897 3.72041L38.5911 3.72437L38.8264 3.64ZM37.7064 1.88L37.537 2.06389V2.06389L37.7064 1.88ZM35.2664 1.24L35.3154 1.48514L35.3239 1.48346L35.3322 1.48119L35.2664 1.24ZM34.9264 1.46L34.7291 1.30651L34.7235 1.31372L34.7184 1.32132L34.9264 1.46ZM34.7464 1.98L34.9921 2.02607L34.9926 2.02345L34.7464 1.98ZM34.7864 14.04L34.5452 14.107L34.5492 14.1191L34.7864 14.04ZM35.0864 14.6L34.9003 14.7675L34.9096 14.7768L35.0864 14.6ZM35.5664 14.88L35.4977 15.1204L35.5664 14.88ZM36.1864 15V15.25L36.2156 14.7517L36.1864 15ZM31.5664 15L31.5372 14.7517L31.5664 15.25V15ZM32.1864 14.88L32.2551 15.1204L32.1864 14.88ZM32.6464 14.6L32.4694 14.423L32.4606 14.4328L32.6464 14.6ZM32.9464 14.04L32.7089 13.9608L32.7055 13.9731L32.9464 14.04ZM32.9464 1.96L32.7052 2.027L32.7092 2.03906L32.9464 1.96ZM32.6464 1.4L32.4603 1.56747L32.4696 1.57678L32.6464 1.4ZM32.1864 1.12L32.1177 1.36038V1.36038L32.1864 1.12ZM31.5664 0.999999V0.749999L31.5372 1.24829L31.5664 0.999999ZM38.5664 1.7L38.4322 1.91096L38.4367 1.9137L38.5664 1.7ZM40.2664 3.44L40.047 3.56003L40.0499 3.56493L40.2664 3.44ZM40.9264 5.72L40.6767 5.73208L40.6769 5.7361L40.9264 5.72ZM40.5464 8.04L40.3164 7.94203L40.3155 7.94415L40.5464 8.04ZM39.1464 9.86L38.9912 9.66398L38.9892 9.66559L39.1464 9.86ZM36.7664 10.7L36.7525 10.4504L36.7453 10.9491L36.7664 10.7ZM39.7464 12.86L39.5204 12.9668L39.5211 12.9683L39.7464 12.86ZM40.6464 14.38L40.4542 14.5402L40.4618 14.5486L40.6464 14.38ZM41.8649 14.5692C41.7208 14.6911 41.5382 14.7899 41.3111 14.8616L41.4617 15.3384C41.7413 15.2501 41.9853 15.1222 42.1879 14.9508L41.8649 14.5692ZM41.3074 14.8628C41.0929 14.9343 40.8729 14.97 40.6464 14.97V15.47C40.9266 15.47 41.1999 15.4257 41.4655 15.3372L41.3074 14.8628ZM40.6464 14.97C40.4153 14.97 40.1912 14.9396 39.9733 14.8791L39.8395 15.3609C40.1017 15.4337 40.3708 15.47 40.6464 15.47V14.97ZM39.9637 14.8766C39.7751 14.8323 39.5861 14.7423 39.3964 14.6L39.0964 15C39.3333 15.1777 39.5844 15.3011 39.8491 15.3634L39.9637 14.8766ZM39.3964 14.6C39.211 14.4609 39.0223 14.2569 38.833 13.9792L38.4198 14.2608C38.6305 14.5698 38.8552 14.8191 39.0964 15L39.3964 14.6ZM38.8358 13.9834C38.6482 13.6957 38.4621 13.3192 38.2794 12.8494L37.8134 13.0306C38.004 13.5208 38.2046 13.9309 38.417 14.2566L38.8358 13.9834ZM38.2785 12.8472C38.089 12.3733 37.9028 11.9854 37.719 11.6884L37.2938 11.9516C37.4567 12.2146 37.6305 12.5734 37.8143 13.0328L38.2785 12.8472ZM37.7216 11.6928C37.5393 11.3843 37.3429 11.1335 37.1291 10.9502L36.8037 11.3298C36.9632 11.4665 37.1268 11.669 37.2912 11.9472L37.7216 11.6928ZM37.136 10.9563C36.94 10.7754 36.7266 10.6458 36.4951 10.5796L36.3577 11.0604C36.4996 11.1009 36.6461 11.1846 36.7968 11.3237L37.136 10.9563ZM36.5105 10.5846C36.2948 10.5075 36.0662 10.47 35.8264 10.47V10.97C36.0133 10.97 36.1846 10.9991 36.3423 11.0554L36.5105 10.5846ZM36.0764 10.72V10.68H35.5764V10.72H36.0764ZM35.8264 10.93C36.63 10.93 37.3137 10.6767 37.8582 10.1616L37.5146 9.79838C37.0725 10.2166 36.5161 10.43 35.8264 10.43V10.93ZM37.8558 10.1639C38.3948 9.66746 38.796 9.04556 39.0617 8.30437L38.5911 8.13563C38.3501 8.80777 37.9914 9.35921 37.517 9.79611L37.8558 10.1639ZM39.0617 8.30437C39.3256 7.56846 39.4564 6.77969 39.4564 5.94H38.9564C38.9564 6.72698 38.8339 7.45821 38.5911 8.13563L39.0617 8.30437ZM39.4564 5.94C39.4564 5.08748 39.3257 4.29197 39.0617 3.55563L38.5911 3.72437C38.8338 4.40136 38.9564 5.13919 38.9564 5.94H39.4564ZM39.0631 3.5596C38.8108 2.81674 38.4157 2.19343 37.8758 1.69611L37.537 2.06389C38.0104 2.4999 38.362 3.04992 38.5897 3.7204L39.0631 3.5596ZM37.8758 1.69611C37.3189 1.1832 36.6301 0.929999 35.8264 0.929999V1.43C36.5161 1.43 37.0806 1.64347 37.537 2.06389L37.8758 1.69611ZM35.8264 0.929999H35.7864V1.43H35.8264V0.929999ZM35.7864 0.929999C35.5707 0.929999 35.3742 0.951457 35.2006 0.998809L35.3322 1.48119C35.4519 1.44854 35.6021 1.43 35.7864 1.43V0.929999ZM35.2174 0.994854C35.0182 1.03469 34.8546 1.14514 34.7291 1.30651L35.1237 1.61348C35.1849 1.53486 35.248 1.49864 35.3154 1.48514L35.2174 0.994854ZM34.7184 1.32132C34.6112 1.48215 34.543 1.69382 34.5002 1.93655L34.9926 2.02345C35.0298 1.81285 35.0816 1.67785 35.1344 1.59867L34.7184 1.32132ZM34.5007 1.93393C34.4565 2.16947 34.4364 2.48053 34.4364 2.86H34.9364C34.9364 2.4928 34.9563 2.21719 34.9921 2.02607L34.5007 1.93393ZM34.4364 2.86V13.06H34.9364V2.86H34.4364ZM34.4364 13.06C34.4364 13.4832 34.4701 13.8355 34.5455 14.1069L35.0273 13.9731C34.9693 13.7645 34.9364 13.4635 34.9364 13.06H34.4364ZM34.5492 14.1191C34.636 14.3792 34.7502 14.6001 34.9006 14.7672L35.2722 14.4328C35.1826 14.3332 35.0969 14.1808 35.0236 13.9609L34.5492 14.1191ZM34.9096 14.7768C35.0739 14.9411 35.2715 15.0557 35.4977 15.1204L35.6351 14.6396C35.488 14.5976 35.3656 14.5256 35.2632 14.4232L34.9096 14.7768ZM35.4977 15.1204C35.6993 15.178 35.9194 15.2203 36.1572 15.2483L36.2156 14.7517C36 14.7264 35.8068 14.6887 35.6351 14.6396L35.4977 15.1204ZM36.1864 14.75H31.5664V15.25H36.1864V14.75ZM31.5956 15.2483C31.8334 15.2203 32.0535 15.178 32.2551 15.1204L32.1177 14.6396C31.946 14.6887 31.7528 14.7264 31.5372 14.7517L31.5956 15.2483ZM32.2551 15.1204C32.483 15.0553 32.6782 14.9383 32.8322 14.7672L32.4606 14.4328C32.3746 14.5283 32.2631 14.5981 32.1177 14.6396L32.2551 15.1204ZM32.8232 14.7768C32.9952 14.6047 33.1127 14.3755 33.1873 14.1069L32.7055 13.9731C32.6468 14.1845 32.5642 14.3286 32.4696 14.4232L32.8232 14.7768ZM33.1836 14.1191C33.2757 13.8426 33.3164 13.4854 33.3164 13.06H32.8164C32.8164 13.4612 32.7771 13.7574 32.7092 13.9609L33.1836 14.1191ZM33.3164 13.06V2.94H32.8164V13.06H33.3164ZM33.3164 2.94C33.3164 2.51456 33.2757 2.15743 33.1836 1.88094L32.7092 2.03906C32.7771 2.24257 32.8164 2.53877 32.8164 2.94H33.3164ZM33.1873 1.89309C33.1127 1.62446 32.9952 1.39529 32.8232 1.22322L32.4696 1.57678C32.5642 1.67138 32.6468 1.81554 32.7055 2.02691L33.1873 1.89309ZM32.8322 1.23276C32.6782 1.06166 32.483 0.944746 32.2551 0.879619L32.1177 1.36038C32.2631 1.40192 32.3746 1.47167 32.4606 1.56724L32.8322 1.23276ZM32.2551 0.879619C32.0535 0.822019 31.8334 0.779684 31.5956 0.751711L31.5372 1.24829C31.7528 1.27365 31.946 1.31131 32.1177 1.36038L32.2551 0.879619ZM31.5664 1.25H35.8264V0.749999H31.5664V1.25ZM35.8264 1.25C36.8844 1.25 37.7481 1.47562 38.4322 1.91091L38.7006 1.48908C37.918 0.99105 36.9551 0.749999 35.8264 0.749999V1.25ZM38.4367 1.9137C39.149 2.3462 39.6833 2.89512 40.0471 3.56L40.4857 3.32C40.0762 2.57154 39.4771 1.96046 38.6962 1.4863L38.4367 1.9137ZM40.0499 3.56493C40.4293 4.22263 40.6386 4.94374 40.6767 5.73208L41.1761 5.70792C41.1343 4.84293 40.9035 4.04404 40.483 3.31507L40.0499 3.56493ZM40.6769 5.7361C40.7279 6.52609 40.6068 7.26011 40.3164 7.94203L40.7764 8.13797C41.0993 7.37989 41.2316 6.56725 41.1759 5.7039L40.6769 5.7361ZM40.3155 7.94415C40.0396 8.60891 39.6002 9.1819 38.9912 9.66399L39.3016 10.056C39.9726 9.52476 40.4666 8.88442 40.7773 8.13584L40.3155 7.94415ZM38.9892 9.66559C38.4108 10.1333 37.6705 10.3994 36.7525 10.4504L36.7803 10.9496C37.7823 10.8939 38.6287 10.6 39.3036 10.0544L38.9892 9.66559ZM36.7453 10.9491C37.5063 11.0136 38.0612 11.1986 38.4364 11.48L38.7364 11.08C38.2583 10.7214 37.5999 10.5197 36.7875 10.4509L36.7453 10.9491ZM38.4364 11.48C38.8179 11.7661 39.1828 12.2528 39.5204 12.9668L39.9724 12.7532C39.6167 12.0006 39.2082 11.4339 38.7364 11.08L38.4364 11.48ZM39.5211 12.9683C39.8572 13.6674 40.1678 14.1961 40.4543 14.54L40.8385 14.22C40.5917 13.9239 40.3023 13.4393 39.9717 12.7517L39.5211 12.9683ZM40.4618 14.5486C40.7767 14.8934 41.1462 15.09 41.5664 15.09V14.59C41.3199 14.59 41.0762 14.4799 40.831 14.2114L40.4618 14.5486ZM41.5664 15.09C41.7548 15.09 41.9371 15.0585 42.1118 14.9949L41.941 14.5251C41.8224 14.5682 41.698 14.59 41.5664 14.59V15.09ZM46.0211 14.04L45.7799 14.107L45.7839 14.1191L46.0211 14.04ZM46.3411 14.6L46.5179 14.4232L46.3411 14.6ZM46.8211 14.88L46.7524 15.1204L46.8211 14.88ZM47.4211 15V15.25L47.4521 14.7519L47.4211 15ZM42.8211 15L42.7919 14.7517L42.8211 15.25V15ZM43.4411 14.88L43.5098 15.1204L43.4411 14.88ZM43.9011 14.6L43.7241 14.423L43.7153 14.4328L43.9011 14.6ZM44.2011 14.04L43.9636 13.9608L43.9602 13.9731L44.2011 14.04ZM44.2011 1.96L43.9599 2.027L43.9639 2.03906L44.2011 1.96ZM43.9011 1.4L43.715 1.56747L43.7243 1.57678L43.9011 1.4ZM43.4411 1.12L43.3724 1.36038V1.36038L43.4411 1.12ZM42.8211 0.999999V0.749999L42.7919 1.24829L42.8211 0.999999ZM47.4211 0.999999L47.4521 1.24807L47.4211 0.749999V0.999999ZM46.8211 1.12L46.8898 1.36038L46.8898 1.36038L46.8211 1.12ZM46.3411 1.4L46.5179 1.57678V1.57678L46.3411 1.4ZM46.0211 1.96L45.7836 1.88084L45.7802 1.89309L46.0211 1.96ZM45.6711 13.06C45.6711 13.4832 45.7048 13.8355 45.7802 14.1069L46.262 13.9731C46.204 13.7645 46.1711 13.4635 46.1711 13.06H45.6711ZM45.7839 14.1191C45.8722 14.3839 45.9958 14.6083 46.1643 14.7768L46.5179 14.4232C46.4197 14.3251 46.33 14.1761 46.2583 13.9609L45.7839 14.1191ZM46.1643 14.7768C46.3286 14.9411 46.5262 15.0557 46.7524 15.1204L46.8898 14.6396C46.7427 14.5976 46.6202 14.5256 46.5179 14.4232L46.1643 14.7768ZM46.7524 15.1204C46.9527 15.1776 47.1654 15.22 47.3901 15.2481L47.4521 14.7519C47.2502 14.7267 47.0629 14.6891 46.8898 14.6396L46.7524 15.1204ZM47.4211 14.75H42.8211V15.25H47.4211V14.75ZM42.8503 15.2483C43.0881 15.2203 43.3082 15.178 43.5098 15.1204L43.3724 14.6396C43.2007 14.6887 43.0075 14.7264 42.7919 14.7517L42.8503 15.2483ZM43.5098 15.1204C43.7377 15.0553 43.9329 14.9383 44.0869 14.7672L43.7153 14.4328C43.6293 14.5283 43.5178 14.5981 43.3724 14.6396L43.5098 15.1204ZM44.0779 14.7768C44.2499 14.6047 44.3674 14.3755 44.442 14.1069L43.9602 13.9731C43.9015 14.1845 43.8189 14.3286 43.7243 14.4232L44.0779 14.7768ZM44.4383 14.1191C44.5304 13.8426 44.5711 13.4854 44.5711 13.06H44.0711C44.0711 13.4612 44.0318 13.7574 43.9639 13.9609L44.4383 14.1191ZM44.5711 13.06V2.94H44.0711V13.06H44.5711ZM44.5711 2.94C44.5711 2.51456 44.5304 2.15743 44.4383 1.88094L43.9639 2.03906C44.0318 2.24257 44.0711 2.53877 44.0711 2.94H44.5711ZM44.442 1.89309C44.3674 1.62446 44.2499 1.39529 44.0779 1.22322L43.7243 1.57678C43.8189 1.67138 43.9015 1.81554 43.9602 2.02691L44.442 1.89309ZM44.0869 1.23276C43.9329 1.06166 43.7377 0.944746 43.5098 0.879619L43.3724 1.36038C43.5178 1.40192 43.6293 1.47167 43.7153 1.56724L44.0869 1.23276ZM43.5098 0.879619C43.3082 0.822019 43.0881 0.779684 42.8503 0.751711L42.7919 1.24829C43.0075 1.27365 43.2007 1.31131 43.3724 1.36038L43.5098 0.879619ZM42.8211 1.25H47.4211V0.749999H42.8211V1.25ZM47.3901 0.75193C47.1654 0.780022 46.9527 0.822407 46.7524 0.879619L46.8898 1.36038C47.0629 1.31093 47.2502 1.27331 47.4521 1.24807L47.3901 0.75193ZM46.7524 0.879619C46.5262 0.944263 46.3286 1.05893 46.1643 1.22322L46.5179 1.57678C46.6202 1.4744 46.7427 1.4024 46.8898 1.36038L46.7524 0.879619ZM46.1643 1.22322C45.9958 1.39173 45.8722 1.61612 45.7839 1.88094L46.2583 2.03906C46.33 1.82388 46.4197 1.67494 46.5179 1.57678L46.1643 1.22322ZM45.7802 1.89309C45.7048 2.16447 45.6711 2.51682 45.6711 2.94H46.1711C46.1711 2.53651 46.204 2.23553 46.262 2.02691L45.7802 1.89309ZM45.6711 2.94V13.06H46.1711V2.94H45.6711ZM59.3414 0.999999L59.3789 1.24718L59.3414 0.749999V0.999999ZM58.2614 1.9L58.4828 2.01621L58.2614 1.9ZM57.8414 15.26V15.51H58.0914V15.26H57.8414ZM57.6614 15.26L57.4437 15.3828L57.5154 15.51H57.6614V15.26ZM50.5414 2.64L50.7591 2.51716L50.2914 1.68811V2.64H50.5414ZM50.9414 14.1L50.7178 14.2118L50.7201 14.2162L50.9414 14.1ZM52.0214 15V15.25L52.0589 14.7528L52.0214 15ZM48.8614 15L48.825 14.7527L48.8614 15.25V15ZM49.9414 14.1L49.72 13.9838L49.7178 13.9882L49.9414 14.1ZM49.9814 1.86L49.765 1.98563L49.7702 1.99376L49.9814 1.86ZM48.8614 0.999999V0.749999L48.7861 1.23839L48.8614 0.999999ZM51.5814 0.999999L51.7987 0.876357L51.7268 0.749999H51.5814V0.999999ZM57.6814 11.72L57.4641 11.8436L57.9314 12.6648V11.72H57.6814ZM57.2614 1.9L57.4828 1.78379H57.4828L57.2614 1.9ZM56.1814 0.999999V0.749999L56.144 1.24718L56.1814 0.999999ZM59.304 0.75282C58.7594 0.835327 58.3429 1.20699 58.0401 1.78379L58.4828 2.01621C58.7399 1.52635 59.0434 1.298 59.3789 1.24718L59.304 0.75282ZM58.0401 1.78379C57.7355 2.3638 57.5914 3.08717 57.5914 3.94H58.0914C58.0914 3.1395 58.2273 2.50286 58.4828 2.01621L58.0401 1.78379ZM57.5914 3.94V15.26H58.0914V3.94H57.5914ZM57.8414 15.01H57.6614V15.51H57.8414V15.01ZM57.8791 15.1372L50.7591 2.51716L50.3237 2.76284L57.4437 15.3828L57.8791 15.1372ZM50.2914 2.64V12.06H50.7914V2.64H50.2914ZM50.2914 12.06C50.2914 12.9113 50.4284 13.633 50.7178 14.2118L51.165 13.9882C50.9211 13.5003 50.7914 12.862 50.7914 12.06H50.2914ZM50.7201 14.2162C51.0229 14.793 51.4394 15.1647 51.984 15.2472L52.0589 14.7528C51.7234 14.702 51.4199 14.4737 51.1628 13.9838L50.7201 14.2162ZM52.0214 14.75H48.8614V15.25H52.0214V14.75ZM48.8978 15.2473C49.4556 15.1653 49.874 14.7938 50.165 14.2118L49.7178 13.9882C49.4755 14.4729 49.1739 14.7014 48.825 14.7527L48.8978 15.2473ZM50.1628 14.2162C50.4673 13.6362 50.6114 12.9128 50.6114 12.06H50.1114C50.1114 12.8605 49.9756 13.4971 49.7201 13.9838L50.1628 14.2162ZM50.6114 12.06V3.7H50.1114V12.06H50.6114ZM50.6114 3.7C50.6114 2.85693 50.4839 2.18616 50.1926 1.72624L49.7702 1.99376C49.9856 2.33384 50.1114 2.88974 50.1114 3.7H50.6114ZM50.1976 1.73447C49.9228 1.26111 49.4956 0.938097 48.9367 0.761603L48.7861 1.23839C49.2406 1.3819 49.5601 1.63222 49.7652 1.98553L50.1976 1.73447ZM48.8614 1.25H51.5814V0.749999H48.8614V1.25ZM51.3641 1.12364L57.4641 11.8436L57.8987 11.5964L51.7987 0.876357L51.3641 1.12364ZM57.9314 11.72V3.94H57.4314V11.72H57.9314ZM57.9314 3.94C57.9314 3.08717 57.7873 2.3638 57.4828 1.78379L57.0401 2.01621C57.2956 2.50286 57.4314 3.1395 57.4314 3.94H57.9314ZM57.4828 1.78379C57.1799 1.20699 56.7634 0.835327 56.2189 0.75282L56.144 1.24718C56.4794 1.298 56.7829 1.52635 57.0401 2.01621L57.4828 1.78379ZM56.1814 1.25H59.3414V0.749999H56.1814V1.25ZM63.3602 11.66L63.5989 11.7341L63.5996 11.7318L63.3602 11.66ZM62.9402 13.48L63.1891 13.5026L62.9402 13.48ZM63.0602 14.46L62.8423 14.5826L63.0602 14.46ZM63.6202 14.88L63.5565 15.1218L63.5638 15.1237L63.5711 15.1251L63.6202 14.88ZM64.5202 15V15.25L64.5401 14.7508L64.5202 15ZM60.2602 15L60.2361 14.7512L60.2602 15.25V15ZM61.2802 14.82L61.352 15.0596L61.3592 15.0572L61.2802 14.82ZM62.0002 14.32L61.8089 14.159L61.8081 14.16L62.0002 14.32ZM62.6002 13.28L62.8303 13.3776L62.8313 13.3752L62.6002 13.28ZM63.2402 11.48L63.4782 11.5565L63.4787 11.5549L63.2402 11.48ZM66.6202 0.719999V0.469999H66.4366L66.3816 0.645077L66.6202 0.719999ZM66.7202 0.719999L66.9584 0.64436L66.9031 0.469999H66.7202V0.719999ZM70.5802 12.88L70.8194 12.8075L70.8184 12.8044L70.5802 12.88ZM71.0002 13.94L70.7811 14.0605L70.7838 14.0653L71.0002 13.94ZM71.5202 14.54L71.668 14.3384L71.5202 14.54ZM72.2202 14.86L72.1595 15.1025L72.1664 15.1043L72.1734 15.1056L72.2202 14.86ZM73.2202 15V15.25L73.2459 14.7513L73.2202 15ZM67.5202 15L67.4953 14.7512L67.5202 15.25V15ZM68.8402 14.38L68.6308 14.2431L68.6272 14.249L68.8402 14.38ZM68.8402 12.78L68.6008 12.8522L68.6017 12.8551L68.8402 12.78ZM68.1402 10.46L68.3795 10.3878L68.3259 10.21H68.1402V10.46ZM63.7202 10.46V10.21H63.5341L63.4807 10.3882L63.7202 10.46ZM63.7802 10.3L63.5415 10.2255L63.4402 10.55H63.7802V10.3ZM68.0802 10.3V10.55H68.4174L68.3194 10.2273L68.0802 10.3ZM65.9602 3.32L66.1994 3.24734L65.9635 2.47073L65.7215 3.24547L65.9602 3.32ZM63.1214 11.5859C62.8797 12.3646 62.7336 12.9911 62.6912 13.4574L63.1891 13.5026C63.2267 13.0889 63.3606 12.5021 63.5989 11.7341L63.1214 11.5859ZM62.6912 13.4574C62.6498 13.9125 62.6844 14.3019 62.8423 14.5826L63.278 14.3374C63.1959 14.1914 63.1505 13.9275 63.1891 13.5026L62.6912 13.4574ZM62.8423 14.5826C62.9979 14.8593 63.2429 15.0392 63.5565 15.1218L63.6838 14.6382C63.4908 14.5874 63.3624 14.4873 63.278 14.3374L62.8423 14.5826ZM63.5711 15.1251C63.8493 15.1808 64.1592 15.2219 64.5002 15.2492L64.5401 14.7508C64.2144 14.7247 63.9244 14.6859 63.6692 14.6349L63.5711 15.1251ZM64.5202 14.75H60.2602V15.25H64.5202V14.75ZM60.2842 15.2488C60.7067 15.208 61.0642 15.1458 61.352 15.0595L61.2083 14.5805C60.9628 14.6542 60.6403 14.712 60.2361 14.7512L60.2842 15.2488ZM61.3592 15.0572C61.6859 14.9483 61.9643 14.7536 62.1922 14.48L61.8081 14.16C61.636 14.3664 61.4344 14.5051 61.2011 14.5828L61.3592 15.0572ZM62.1914 14.481C62.4262 14.2022 62.6378 13.8314 62.8303 13.3776L62.37 13.1824C62.1892 13.6086 62.0008 13.9311 61.8089 14.159L62.1914 14.481ZM62.8313 13.3752C63.0216 12.9132 63.2372 12.3062 63.4782 11.5565L63.0021 11.4035C62.7631 12.1471 62.5521 12.7401 62.369 13.1848L62.8313 13.3752ZM63.4787 11.5549L66.8587 0.794921L66.3816 0.645077L63.0016 11.4051L63.4787 11.5549ZM66.6202 0.969999H66.7202V0.469999H66.6202V0.969999ZM66.4819 0.795638L70.3419 12.9556L70.8184 12.8044L66.9584 0.64436L66.4819 0.795638ZM70.3409 12.9525C70.477 13.4016 70.623 13.773 70.7811 14.0605L71.2192 13.8195C71.084 13.5737 70.95 13.2384 70.8194 12.8075L70.3409 12.9525ZM70.7838 14.0653C70.9447 14.3432 71.1399 14.5711 71.3723 14.7416L71.668 14.3384C71.5004 14.2155 71.3489 14.0435 71.2165 13.8147L70.7838 14.0653ZM71.3723 14.7416C71.6012 14.9094 71.8648 15.0289 72.1595 15.1025L72.2808 14.6175C72.0422 14.5578 71.8392 14.4639 71.668 14.3384L71.3723 14.7416ZM72.1734 15.1056C72.4623 15.1606 72.803 15.2082 73.1944 15.2487L73.2459 14.7513C72.8639 14.7118 72.538 14.666 72.2669 14.6144L72.1734 15.1056ZM73.2202 14.75H67.5202V15.25H73.2202V14.75ZM67.545 15.2488C68.2395 15.1793 68.7783 14.9575 69.0531 14.511L68.6272 14.249C68.4753 14.4958 68.1341 14.6874 67.4953 14.7512L67.545 15.2488ZM69.0494 14.5168C69.3406 14.0714 69.3105 13.4413 69.0786 12.7049L68.6017 12.8551C68.8232 13.5587 68.793 13.9953 68.6309 14.2432L69.0494 14.5168ZM69.0795 12.7078L68.3795 10.3878L67.9008 10.5322L68.6008 12.8522L69.0795 12.7078ZM68.1402 10.21H63.7202V10.71H68.1402V10.21ZM63.4807 10.3882L63.1207 11.5882L63.5996 11.7318L63.9596 10.5318L63.4807 10.3882ZM63.7802 10.55H68.0802V10.05H63.7802V10.55ZM68.3194 10.2273L66.1994 3.24734L65.7209 3.39265L67.841 10.3727L68.3194 10.2273ZM65.7215 3.24547L63.5415 10.2255L64.0188 10.3745L66.1988 3.39453L65.7215 3.24547ZM88.0038 13L87.7813 12.8859L87.7801 12.8882L88.0038 13ZM86.9638 14.26L86.8128 14.0607L86.8098 14.063L86.9638 14.26ZM85.4837 15L85.4151 14.7596L85.4098 14.7612L85.4837 15ZM81.2038 14.8L81.1147 15.0336L81.118 15.0348L81.2038 14.8ZM79.0438 13.36L78.8011 13.2997L78.7683 13.4318L78.8614 13.531L79.0438 13.36ZM79.8037 10.3H80.0537L79.5611 10.2397L79.8037 10.3ZM80.1838 12.44L79.9534 12.5372L80.1838 12.44ZM81.1637 13.94L80.9869 14.1169L80.993 14.1226L81.1637 13.94ZM82.5438 14.8L82.6302 14.5654L82.5438 14.8ZM85.2838 14.9L85.3579 15.1388L85.3628 15.1372L85.2838 14.9ZM86.3438 14.32L86.1845 14.1273L86.3438 14.32ZM87.0638 13.4L86.8401 13.2882L86.8385 13.2915L87.0638 13.4ZM86.7838 10.32L86.5844 10.4709L86.7838 10.32ZM85.3838 9L85.2417 9.20572L85.3838 9ZM83.5638 7.94L83.4482 8.1618L83.4538 8.16452L83.5638 7.94ZM81.7637 6.88L81.9024 6.67199V6.67199L81.7637 6.88ZM80.3638 5.62L80.1664 5.7735L80.1685 5.77617L80.3638 5.62ZM80.1237 2.44L79.9045 2.31978L79.9032 2.32235L80.1237 2.44ZM81.0038 1.44L81.1476 1.64446L81.1491 1.64343L81.0038 1.44ZM82.2637 0.86L82.326 1.10212L82.2637 0.86ZM87.1438 1.8L87.3922 1.82761L87.4067 1.69709L87.3075 1.61108L87.1438 1.8ZM86.8638 4.32H86.6138L87.1122 4.34761L86.8638 4.32ZM86.5438 2.8L86.3188 2.90908L86.3201 2.9118L86.5438 2.8ZM82.2637 1.04L82.3269 1.282L82.3338 1.28L82.2637 1.04ZM81.4437 1.42L81.5825 1.62816L81.5901 1.62267L81.4437 1.42ZM80.8638 2.04L81.0801 2.16526L80.8638 2.04ZM81.2038 4.4L81.0156 4.56465L81.0185 4.56788L81.2038 4.4ZM82.6438 5.6L82.5073 5.80957L82.513 5.81308L82.6438 5.6ZM84.5238 6.66L84.4084 6.8818L84.5238 6.66ZM86.3838 7.82L86.2345 8.02063L86.2398 8.02437L86.3838 7.82ZM87.8238 9.26L87.6172 9.40105L87.6214 9.40674L87.8238 9.26ZM88.1538 11.2C88.1538 11.8468 88.0271 12.4066 87.7813 12.8859L88.2262 13.1141C88.5137 12.5534 88.6538 11.9132 88.6538 11.2H88.1538ZM87.7801 12.8882C87.5435 13.3614 87.2214 13.7512 86.8128 14.0607L87.1147 14.4593C87.5861 14.1021 87.9573 13.6519 88.2274 13.1118L87.7801 12.8882ZM86.8098 14.063C86.4104 14.3751 85.9465 14.6078 85.4151 14.7596L85.5524 15.2404C86.141 15.0722 86.6638 14.8116 87.1177 14.457L86.8098 14.063ZM85.4098 14.7612C84.8749 14.9268 84.3132 15.01 83.7238 15.01V15.51C84.361 15.51 84.9726 15.4199 85.5577 15.2388L85.4098 14.7612ZM83.7238 15.01C82.9148 15.01 82.1038 14.8624 81.2895 14.5652L81.118 15.0348C81.9837 15.3509 82.8527 15.51 83.7238 15.51V15.01ZM81.2927 14.5664C80.4873 14.2596 79.7995 13.8006 79.2261 13.189L78.8614 13.531C79.488 14.1994 80.2402 14.7004 81.1148 15.0336L81.2927 14.5664ZM79.2864 13.4203L80.0464 10.3603L79.5611 10.2397L78.8011 13.2997L79.2864 13.4203ZM79.5537 10.3C79.5537 11.1514 79.6841 11.8994 79.9534 12.5372L80.4141 12.3428C80.1767 11.7806 80.0537 11.1019 80.0537 10.3H79.5537ZM79.9534 12.5372C80.2174 13.1625 80.561 13.6908 80.987 14.1168L81.3405 13.7632C80.9665 13.3892 80.6567 12.9175 80.4141 12.3428L79.9534 12.5372ZM80.993 14.1226C81.4295 14.5309 81.9178 14.8358 82.4573 15.0346L82.6302 14.5654C82.1563 14.3908 81.7247 14.1224 81.3345 13.7574L80.993 14.1226ZM82.4573 15.0346C82.9898 15.2308 83.5257 15.33 84.0638 15.33V14.83C83.5885 14.83 83.111 14.7426 82.6302 14.5654L82.4573 15.0346ZM84.0638 15.33C84.5142 15.33 84.9459 15.2666 85.3578 15.1388L85.2097 14.6612C84.8482 14.7734 84.4667 14.83 84.0638 14.83V15.33ZM85.3628 15.1372C85.7903 14.9947 86.1712 14.7869 86.503 14.5127L86.1845 14.1273C85.903 14.3598 85.5772 14.5386 85.2047 14.6628L85.3628 15.1372ZM86.503 14.5127C86.8376 14.2363 87.1001 13.9008 87.289 13.5085L86.8385 13.2915C86.6808 13.6192 86.4632 13.897 86.1845 14.1273L86.503 14.5127ZM87.2874 13.5118C87.4938 13.0989 87.5938 12.633 87.5938 12.12H87.0938C87.0938 12.567 87.007 12.9544 86.8401 13.2882L87.2874 13.5118ZM87.5938 12.12C87.5938 11.367 87.3939 10.7119 86.9831 10.1691L86.5844 10.4709C86.9203 10.9147 87.0938 11.4597 87.0938 12.12H87.5938ZM86.9831 10.1691C86.5922 9.65257 86.1055 9.19456 85.5258 8.79428L85.2417 9.20572C85.782 9.57877 86.2286 10.0008 86.5844 10.4709L86.9831 10.1691ZM85.5258 8.79428C84.9549 8.40009 84.3374 8.04057 83.6737 7.71548L83.4538 8.16452C84.0967 8.47943 84.6926 8.82657 85.2417 9.20572L85.5258 8.79428ZM83.6792 7.71827C83.0466 7.38879 82.4544 7.03999 81.9024 6.67199L81.6251 7.08801C82.1931 7.46667 82.8009 7.82454 83.4483 8.16173L83.6792 7.71827ZM81.9024 6.67199C81.3612 6.31115 80.9144 5.90805 80.559 5.46383L80.1685 5.77617C80.5598 6.26528 81.0463 6.70219 81.6251 7.08801L81.9024 6.67199ZM80.5611 5.46651C80.2259 5.03558 80.0537 4.51134 80.0537 3.88H79.5537C79.5537 4.60866 79.7549 5.24442 80.1664 5.77349L80.5611 5.46651ZM80.0537 3.88C80.0537 3.35152 80.1544 2.91388 80.3443 2.55765L79.9032 2.32235C79.6665 2.76612 79.5537 3.28848 79.5537 3.88H80.0537ZM80.343 2.56021C80.5526 2.17791 80.821 1.87428 81.1476 1.64445L80.8599 1.23555C80.4665 1.51238 80.1482 1.87542 79.9045 2.31979L80.343 2.56021ZM81.1491 1.64343C81.4961 1.39556 81.8877 1.21484 82.326 1.10212L82.2015 0.617877C81.7065 0.745157 81.2581 0.951108 80.8584 1.23657L81.1491 1.64343ZM82.326 1.10212C82.7719 0.987477 83.2309 0.93 83.7038 0.93V0.43C83.1899 0.43 82.689 0.492522 82.2015 0.617877L82.326 1.10212ZM83.7038 0.93C84.345 0.93 84.9588 1.02611 85.5462 1.21768L85.7013 0.742317C85.0621 0.533886 84.3959 0.43 83.7038 0.43V0.93ZM85.5462 1.21768C86.1346 1.40955 86.6101 1.66832 86.98 1.98892L87.3075 1.61108C86.8774 1.23835 86.3395 0.950452 85.7013 0.742317L85.5462 1.21768ZM86.8953 1.77239L86.6153 4.29239L87.1122 4.34761L87.3922 1.82761L86.8953 1.77239ZM87.1138 4.32C87.1138 3.70328 87.0016 3.15664 86.7674 2.6882L86.3201 2.9118C86.5126 3.29669 86.6138 3.76338 86.6138 4.32H87.1138ZM86.7687 2.69093C86.5409 2.22107 86.2388 1.83082 85.8608 1.52551L85.5467 1.91448C85.862 2.16918 86.1199 2.49893 86.3188 2.90907L86.7687 2.69093ZM85.8608 1.52551C85.4896 1.22568 85.0749 1.00407 84.6183 0.861379L84.4692 1.33862C84.8659 1.4626 85.2246 1.65432 85.5467 1.91448L85.8608 1.52551ZM84.6183 0.861379C84.1687 0.720864 83.7169 0.649999 83.2637 0.649999V1.15C83.6639 1.15 84.0655 1.21247 84.4692 1.33862L84.6183 0.861379ZM83.2637 0.649999C82.8943 0.649999 82.5374 0.699772 82.1937 0.8L82.3338 1.28C82.6301 1.19356 82.9398 1.15 83.2637 1.15V0.649999ZM82.2006 0.798095C81.8662 0.885351 81.5642 1.02463 81.2974 1.21733L81.5901 1.62267C81.8033 1.4687 82.048 1.35465 82.3269 1.2819L82.2006 0.798095ZM81.3051 1.21199C81.0327 1.39358 80.813 1.62874 80.6474 1.91474L81.0801 2.16526C81.2079 1.94459 81.3748 1.76642 81.5824 1.62801L81.3051 1.21199ZM80.6474 1.91474C80.4767 2.20963 80.3938 2.54023 80.3938 2.9H80.8938C80.8938 2.61977 80.9575 2.37703 81.0801 2.16526L80.6474 1.91474ZM80.3938 2.9C80.3938 3.53314 80.6019 4.09182 81.0156 4.56463L81.3919 4.23537C81.0589 3.85484 80.8938 3.41353 80.8938 2.9H80.3938ZM81.0185 4.56788C81.422 5.01311 81.9193 5.42658 82.5073 5.8095L82.7802 5.3905C82.2216 5.02676 81.7588 4.64022 81.389 4.23212L81.0185 4.56788ZM82.513 5.81308C83.1051 6.17643 83.737 6.53266 84.4084 6.8818L84.6391 6.4382C83.9772 6.09401 83.3557 5.74356 82.7745 5.38692L82.513 5.81308ZM84.4084 6.8818C85.0638 7.22262 85.6724 7.60226 86.2345 8.02056L86.533 7.61944C85.9484 7.1844 85.317 6.79071 84.6391 6.4382L84.4084 6.8818ZM86.2398 8.02437C86.804 8.42193 87.2622 8.88102 87.6173 9.40099L88.0302 9.11901C87.6386 8.54565 87.1368 8.04473 86.5277 7.61563L86.2398 8.02437ZM87.6214 9.40674C87.9725 9.89107 88.1538 10.4843 88.1538 11.2H88.6538C88.6538 10.3957 88.4483 9.6956 88.0262 9.11326L87.6214 9.40674ZM97.8689 14.98L97.6225 14.9377L97.6189 14.9587V14.98H97.8689ZM97.8689 15V15.25H98.1189V15H97.8689ZM89.1289 15L89.0997 14.7517L89.1289 15.25V15ZM89.7489 14.88L89.8176 15.1204L89.7489 14.88ZM90.2089 14.6L90.0319 14.423L90.0231 14.4328L90.2089 14.6ZM90.5089 14.04L90.2714 13.9608L90.268 13.9731L90.5089 14.04ZM90.5089 1.96L90.2677 2.027L90.2717 2.03906L90.5089 1.96ZM90.2089 1.4L90.0228 1.56747L90.0321 1.57678L90.2089 1.4ZM89.7489 1.12L89.6802 1.36038V1.36038L89.7489 1.12ZM89.1289 0.999999V0.749999L89.0997 1.24829L89.1289 0.999999ZM97.6289 0.999999L97.8754 0.957959L97.8399 0.749999H97.6289V0.999999ZM98.2089 4.4L97.9717 4.47906L98.4553 4.35796L98.2089 4.4ZM97.9689 3.62L97.7268 3.68278L97.7292 3.69102L97.9689 3.62ZM97.4489 2.54L97.2445 2.68387L97.4489 2.54ZM96.3889 1.6L96.2575 1.81275L96.2622 1.81548L96.3889 1.6ZM92.2289 1.18V0.929999H91.9789V1.18H92.2289ZM92.2289 7.54H91.9789V7.79H92.2289V7.54ZM95.6089 7.36L95.7443 7.57055L95.7542 7.56343L95.6089 7.36ZM96.0289 6.88L95.8115 6.75577L95.8053 6.7682L96.0289 6.88ZM96.2489 6.28L96.0053 6.22268L96.0032 6.23393L96.2489 6.28ZM96.3689 5.66H96.6189L96.1214 5.62464L96.3689 5.66ZM96.3689 9.6L96.1214 9.63535L96.6189 9.6H96.3689ZM96.2489 9L96.0032 9.04607L96.0046 9.0534L96.0064 9.06063L96.2489 9ZM96.0289 8.4L95.8024 8.50572L95.8067 8.51507L95.8118 8.52403L96.0289 8.4ZM95.6089 7.92L95.4634 8.12368L95.4737 8.13029L95.6089 7.92ZM92.2289 7.72V7.47H91.9789V7.72H92.2289ZM92.2689 14.04L92.0206 14.0692L92.0216 14.0777L92.0232 14.0861L92.2689 14.04ZM92.5089 14.54L92.6857 14.3632L92.5089 14.54ZM93.0489 14.78L93.0078 15.0266L93.0152 15.0278L93.0227 15.0286L93.0489 14.78ZM96.6289 14.42L96.7557 14.6355L96.7603 14.6327L96.6289 14.42ZM97.6889 13.46L97.8934 13.6039V13.6039L97.6889 13.46ZM98.2089 12.38L97.9691 12.3089L97.9669 12.3173L98.2089 12.38ZM98.4489 11.6L98.6953 11.6423L98.2117 11.5209L98.4489 11.6ZM97.6189 14.98V15H98.1189V14.98H97.6189ZM97.8689 14.75H89.1289V15.25H97.8689V14.75ZM89.1581 15.2483C89.3959 15.2203 89.616 15.178 89.8176 15.1204L89.6802 14.6396C89.5085 14.6887 89.3153 14.7264 89.0997 14.7517L89.1581 15.2483ZM89.8176 15.1204C90.0455 15.0553 90.2407 14.9383 90.3947 14.7672L90.0231 14.4328C89.9371 14.5283 89.8256 14.5981 89.6802 14.6396L89.8176 15.1204ZM90.3857 14.7768C90.5577 14.6047 90.6752 14.3755 90.7498 14.1069L90.268 13.9731C90.2093 14.1845 90.1267 14.3286 90.0321 14.4232L90.3857 14.7768ZM90.7461 14.1191C90.8382 13.8426 90.8789 13.4854 90.8789 13.06H90.3789C90.3789 13.4612 90.3396 13.7574 90.2717 13.9609L90.7461 14.1191ZM90.8789 13.06V2.94H90.3789V13.06H90.8789ZM90.8789 2.94C90.8789 2.51456 90.8382 2.15743 90.7461 1.88094L90.2717 2.03906C90.3396 2.24257 90.3789 2.53877 90.3789 2.94H90.8789ZM90.7498 1.89309C90.6752 1.62446 90.5577 1.39529 90.3857 1.22322L90.0321 1.57678C90.1267 1.67138 90.2093 1.81554 90.268 2.02691L90.7498 1.89309ZM90.3947 1.23276C90.2407 1.06166 90.0455 0.944746 89.8176 0.879619L89.6802 1.36038C89.8256 1.40192 89.9371 1.47167 90.0231 1.56724L90.3947 1.23276ZM89.8176 0.879619C89.616 0.822019 89.3959 0.779684 89.1581 0.751711L89.0997 1.24829C89.3153 1.27365 89.5085 1.31131 89.6802 1.36038L89.8176 0.879619ZM89.1289 1.25H97.6289V0.749999H89.1289V1.25ZM97.3825 1.04204L97.9625 4.44204L98.4553 4.35796L97.8754 0.957959L97.3825 1.04204ZM98.4461 4.32094C98.3942 4.16525 98.3152 3.90872 98.2086 3.54898L97.7292 3.69102C97.836 4.05128 97.917 4.31475 97.9717 4.47906L98.4461 4.32094ZM98.2109 3.55726C98.1088 3.16338 97.9209 2.77628 97.6534 2.39613L97.2445 2.68387C97.4836 3.02372 97.6424 3.35662 97.7269 3.68274L98.2109 3.55726ZM97.6534 2.39613C97.3759 2.00188 96.9938 1.66578 96.5157 1.38452L96.2622 1.81548C96.6907 2.06755 97.0152 2.35812 97.2445 2.68387L97.6534 2.39613ZM96.5203 1.3873C96.0135 1.07428 95.3489 0.929999 94.5489 0.929999V1.43C95.2956 1.43 95.8577 1.56572 96.2575 1.8127L96.5203 1.3873ZM94.5489 0.929999H92.2289V1.43H94.5489V0.929999ZM91.9789 1.18V7.54H92.4789V1.18H91.9789ZM92.2289 7.79H94.8489V7.29H92.2289V7.79ZM94.8489 7.79C95.1967 7.79 95.503 7.72529 95.7441 7.57029L95.4737 7.1497C95.3415 7.23471 95.1411 7.29 94.8489 7.29V7.79ZM95.7542 7.56343C95.9707 7.4088 96.1392 7.21846 96.2525 6.9918L95.8053 6.7682C95.732 6.91487 95.6204 7.04454 95.4636 7.15657L95.7542 7.56343ZM96.246 7.00403C96.3666 6.79292 96.4495 6.56654 96.4946 6.32607L96.0032 6.23393C95.9683 6.42012 95.9045 6.59374 95.8118 6.75597L96.246 7.00403ZM96.4923 6.33726C96.5469 6.10496 96.5885 5.89085 96.6164 5.69536L96.1214 5.62464C96.096 5.80248 96.0576 6.00171 96.0056 6.22274L96.4923 6.33726ZM96.1189 5.66V9.6H96.6189V5.66H96.1189ZM96.6164 9.56464C96.5883 9.36821 96.5465 9.1597 96.4914 8.93937L96.0064 9.06063C96.058 9.26696 96.0961 9.45845 96.1214 9.63535L96.6164 9.56464ZM96.4946 8.95393C96.4495 8.71346 96.3666 8.48707 96.246 8.27596L95.8118 8.52403C95.9045 8.68626 95.9683 8.85987 96.0032 9.04607L96.4946 8.95393ZM96.2555 8.29428C96.142 8.05125 95.9703 7.85509 95.7441 7.70971L95.4737 8.13029C95.6209 8.22491 95.7291 8.34875 95.8024 8.50572L96.2555 8.29428ZM95.7542 7.71657C95.5114 7.54309 95.201 7.47 94.8489 7.47V7.97C95.1368 7.97 95.3331 8.03024 95.4636 8.12343L95.7542 7.71657ZM94.8489 7.47H92.2289V7.97H94.8489V7.47ZM91.9789 7.72V13.14H92.4789V7.72H91.9789ZM91.9789 13.14C91.9789 13.5178 91.9923 13.8287 92.0206 14.0692L92.5172 14.0108C92.4922 13.7979 92.4789 13.5089 92.4789 13.14H91.9789ZM92.0232 14.0861C92.0699 14.3352 92.1677 14.5524 92.3321 14.7168L92.6857 14.3632C92.6101 14.2876 92.5479 14.1715 92.5146 13.9939L92.0232 14.0861ZM92.3321 14.7168C92.5018 14.8865 92.7379 14.9816 93.0078 15.0266L93.09 14.5334C92.88 14.4984 92.756 14.4335 92.6857 14.3632L92.3321 14.7168ZM93.0227 15.0286C93.2886 15.0566 93.6385 15.07 94.0689 15.07V14.57C93.646 14.57 93.3159 14.5567 93.0751 14.5314L93.0227 15.0286ZM94.0689 15.07H94.7889V14.57H94.0689V15.07ZM94.7889 15.07C95.5872 15.07 96.25 14.933 96.7557 14.6355L96.5022 14.2045C96.1012 14.4404 95.5373 14.57 94.7889 14.57V15.07ZM96.7603 14.6327C97.2365 14.3386 97.6169 13.9967 97.8934 13.6039L97.4845 13.3161C97.2542 13.6433 96.928 13.9414 96.4975 14.2073L96.7603 14.6327ZM97.8934 13.6039C98.1609 13.2237 98.3488 12.8366 98.4509 12.4427L97.9669 12.3173C97.8824 12.6434 97.7236 12.9763 97.4845 13.3161L97.8934 13.6039ZM98.4486 12.451C98.5552 12.0913 98.6342 11.8348 98.6861 11.6791L98.2117 11.5209C98.157 11.6852 98.076 11.9487 97.9692 12.309L98.4486 12.451ZM98.2025 11.5577L97.6225 14.9377L98.1153 15.0223L98.6953 11.6423L98.2025 11.5577ZM109.655 3.94L109.901 3.89107L109.415 3.8707L109.655 3.94ZM106.395 15.24V15.49H106.584L106.636 15.3093L106.395 15.24ZM106.215 15.24L105.976 15.3107L106.029 15.49H106.215V15.24ZM102.955 4.18L103.195 4.10932L102.711 4.12695L102.955 4.18ZM101.335 11.64L101.091 11.5869L101.091 11.5871L101.335 11.64ZM101.075 13.5H100.825L100.826 13.5076L101.075 13.5ZM101.315 14.48L101.109 14.6218L101.115 14.63L101.315 14.48ZM101.955 14.88L101.906 15.1251L101.955 14.88ZM102.875 15V15.25L102.895 14.7507L102.875 15ZM98.3555 15L98.3314 14.7512L98.3555 15.25V15ZM99.3955 14.82L99.3297 14.5788L99.3268 14.5796L99.3955 14.82ZM100.135 14.34L99.9485 14.1738L99.9434 14.18L100.135 14.34ZM100.695 13.32L100.462 13.2307L100.461 13.2346L100.695 13.32ZM101.215 11.5L101.459 11.5556L101.46 11.5538L101.215 11.5ZM103.595 0.699999V0.449999H103.395L103.351 0.646198L103.595 0.699999ZM103.695 0.699999L103.936 0.630775L103.884 0.449999H103.695V0.699999ZM107.055 12.36L106.815 12.4292L107.055 13.2604L107.296 12.4296L107.055 12.36ZM110.435 0.699999V0.449999H110.248L110.195 0.630395L110.435 0.699999ZM110.535 0.699999L110.773 0.620943L110.716 0.449999H110.535V0.699999ZM110.875 2.06L111.12 2.00628L110.875 2.06ZM111.355 4.38L111.11 4.42832L111.111 4.43264L111.355 4.38ZM111.935 7.12L111.691 7.17099L111.935 7.12ZM112.475 9.8L112.23 9.84751L112.231 9.85211L112.475 9.8ZM112.895 11.88L112.65 11.9257L112.651 11.9312L112.895 11.88ZM113.115 12.86L113.356 12.7924L113.353 12.7809L113.115 12.86ZM113.995 14.46L113.837 14.6533L113.844 14.6592L113.995 14.46ZM115.535 15V15.25L115.561 14.7513L115.535 15ZM109.955 15L109.933 14.751L109.955 15.25V15ZM111.255 14.46L111.444 14.6241L111.448 14.62L111.255 14.46ZM111.455 12.96L111.701 12.9119L111.701 12.9111L111.455 12.96ZM109.415 3.8707L106.155 15.1707L106.636 15.3093L109.896 4.0093L109.415 3.8707ZM106.395 14.99H106.215V15.49H106.395V14.99ZM106.455 15.1693L103.195 4.10932L102.716 4.25068L105.976 15.3107L106.455 15.1693ZM102.711 4.12695L101.091 11.5869L101.58 11.6931L103.2 4.23305L102.711 4.12695ZM101.091 11.5871C100.917 12.3923 100.825 13.033 100.825 13.5H101.325C101.325 13.087 101.408 12.4877 101.58 11.6929L101.091 11.5871ZM100.826 13.5076C100.839 13.9657 100.923 14.3498 101.109 14.6216L101.521 14.3384C101.415 14.1835 101.338 13.9143 101.325 13.4924L100.826 13.5076ZM101.115 14.63C101.313 14.8936 101.581 15.06 101.906 15.1251L102.005 14.6349C101.797 14.5933 101.638 14.4931 101.515 14.33L101.115 14.63ZM101.906 15.1251C102.185 15.1809 102.502 15.222 102.856 15.2493L102.895 14.7507C102.555 14.7246 102.259 14.6858 102.005 14.6349L101.906 15.1251ZM102.875 14.75H98.3555V15.25H102.875V14.75ZM98.3796 15.2488C98.8022 15.2079 99.1649 15.1459 99.4641 15.0604L99.3268 14.5796C99.0661 14.6541 98.7354 14.7121 98.3314 14.7512L98.3796 15.2488ZM99.4613 15.0612C99.8054 14.9673 100.096 14.7782 100.328 14.5L99.9434 14.18C99.7752 14.3818 99.5722 14.5127 99.3297 14.5788L99.4613 15.0612ZM100.322 14.5061C100.564 14.2343 100.764 13.8627 100.93 13.4054L100.461 13.2346C100.307 13.6573 100.134 13.9657 99.9486 14.1739L100.322 14.5061ZM100.929 13.4093C101.108 12.9404 101.285 12.3211 101.459 11.5556L100.972 11.4444C100.8 12.1989 100.629 12.7929 100.462 13.2307L100.929 13.4093ZM101.46 11.5538L103.84 0.753801L103.351 0.646198L100.971 11.4462L101.46 11.5538ZM103.595 0.949999H103.695V0.449999H103.595V0.949999ZM103.455 0.769224L106.815 12.4292L107.296 12.2908L103.936 0.630775L103.455 0.769224ZM107.296 12.4296L110.676 0.769604L110.195 0.630395L106.815 12.2904L107.296 12.4296ZM110.435 0.949999H110.535V0.449999H110.435V0.949999ZM110.298 0.779056C110.374 1.00484 110.484 1.44592 110.631 2.11372L111.12 2.00628C110.973 1.34074 110.857 0.875158 110.773 0.620943L110.298 0.779056ZM110.631 2.11372C110.777 2.77813 110.937 3.5496 111.11 4.42831L111.601 4.33169C111.427 3.4504 111.267 2.6752 111.12 2.00628L110.631 2.11372ZM111.111 4.43264C111.298 5.2987 111.491 6.21148 111.691 7.17099L112.18 7.06901C111.98 6.10852 111.787 5.19463 111.6 4.32736L111.111 4.43264ZM111.691 7.17099C111.891 8.13001 112.07 9.02217 112.23 9.8475L112.721 9.75249C112.561 8.92449 112.38 8.02999 112.18 7.06901L111.691 7.17099ZM112.231 9.85211C112.404 10.6641 112.544 11.3552 112.65 11.9257L113.141 11.8343C113.034 11.2581 112.894 10.5625 112.72 9.74789L112.231 9.85211ZM112.651 11.9312C112.769 12.4946 112.846 12.8414 112.878 12.9391L113.353 12.7809C113.332 12.7186 113.262 12.4121 113.14 11.8288L112.651 11.9312ZM112.875 12.9276C113.094 13.7084 113.406 14.2993 113.837 14.6532L114.154 14.2668C113.838 14.0074 113.564 13.5316 113.356 12.7924L112.875 12.9276ZM113.844 14.6592C114.277 14.9877 114.839 15.1788 115.51 15.2487L115.561 14.7513C114.952 14.6879 114.487 14.5189 114.147 14.2608L113.844 14.6592ZM115.535 14.75H109.955V15.25H115.535V14.75ZM109.978 15.249C110.611 15.1927 111.118 14.9986 111.444 14.624L111.067 14.296C110.859 14.5347 110.5 14.7006 109.933 14.751L109.978 15.249ZM111.448 14.62C111.787 14.213 111.839 13.6178 111.701 12.9119L111.21 13.0081C111.338 13.6622 111.258 14.067 111.063 14.3L111.448 14.62ZM111.701 12.9111L109.901 3.89107L109.41 3.98892L111.21 13.0089L111.701 12.9111ZM118.638 14.04L118.396 14.107L118.4 14.1191L118.638 14.04ZM118.958 14.6L119.134 14.4232L118.958 14.6ZM119.438 14.88L119.369 15.1204L119.438 14.88ZM120.037 15V15.25L120.069 14.7519L120.037 15ZM115.438 15L115.408 14.7517L115.438 15.25V15ZM116.058 14.88L116.126 15.1204L116.058 14.88ZM116.518 14.6L116.34 14.423L116.332 14.4328L116.518 14.6ZM116.818 14.04L116.58 13.9608L116.577 13.9731L116.818 14.04ZM116.818 1.96L116.576 2.027L116.58 2.03906L116.818 1.96ZM116.518 1.4L116.331 1.56747L116.341 1.57678L116.518 1.4ZM116.058 1.12L115.989 1.36038V1.36038L116.058 1.12ZM115.438 0.999999V0.749999L115.408 1.24829L115.438 0.999999ZM120.037 0.999999L120.069 1.24807L120.037 0.749999V0.999999ZM119.438 1.12L119.506 1.36038V1.36038L119.438 1.12ZM118.958 1.4L119.134 1.57678V1.57678L118.958 1.4ZM118.638 1.96L118.4 1.88084L118.397 1.89309L118.638 1.96ZM118.287 13.06C118.287 13.4832 118.321 13.8355 118.397 14.1069L118.878 13.9731C118.82 13.7645 118.787 13.4635 118.787 13.06H118.287ZM118.4 14.1191C118.489 14.3839 118.612 14.6083 118.781 14.7768L119.134 14.4232C119.036 14.3251 118.946 14.1761 118.875 13.9609L118.4 14.1191ZM118.781 14.7768C118.945 14.9411 119.143 15.0557 119.369 15.1204L119.506 14.6396C119.359 14.5976 119.237 14.5256 119.134 14.4232L118.781 14.7768ZM119.369 15.1204C119.569 15.1776 119.782 15.22 120.006 15.2481L120.069 14.7519C119.867 14.7267 119.679 14.6891 119.506 14.6396L119.369 15.1204ZM120.037 14.75H115.438V15.25H120.037V14.75ZM115.467 15.2483C115.704 15.2203 115.925 15.178 116.126 15.1204L115.989 14.6396C115.817 14.6887 115.624 14.7264 115.408 14.7517L115.467 15.2483ZM116.126 15.1204C116.354 15.0553 116.549 14.9383 116.703 14.7672L116.332 14.4328C116.246 14.5283 116.134 14.5981 115.989 14.6396L116.126 15.1204ZM116.694 14.7768C116.866 14.6047 116.984 14.3755 117.058 14.1069L116.577 13.9731C116.518 14.1845 116.435 14.3286 116.341 14.4232L116.694 14.7768ZM117.055 14.1191C117.147 13.8426 117.188 13.4854 117.188 13.06H116.688C116.688 13.4612 116.648 13.7574 116.58 13.9609L117.055 14.1191ZM117.188 13.06V2.94H116.688V13.06H117.188ZM117.188 2.94C117.188 2.51456 117.147 2.15743 117.055 1.88094L116.58 2.03906C116.648 2.24257 116.688 2.53877 116.688 2.94H117.188ZM117.058 1.89309C116.984 1.62446 116.866 1.39529 116.694 1.22322L116.341 1.57678C116.435 1.67138 116.518 1.81554 116.577 2.02691L117.058 1.89309ZM116.703 1.23276C116.549 1.06166 116.354 0.944746 116.126 0.879619L115.989 1.36038C116.134 1.40192 116.246 1.47167 116.332 1.56724L116.703 1.23276ZM116.126 0.879619C115.925 0.822019 115.704 0.779684 115.467 0.751711L115.408 1.24829C115.624 1.27365 115.817 1.31131 115.989 1.36038L116.126 0.879619ZM115.438 1.25H120.037V0.749999H115.438V1.25ZM120.006 0.75193C119.782 0.780022 119.569 0.822407 119.369 0.879619L119.506 1.36038C119.679 1.31093 119.867 1.27331 120.069 1.24807L120.006 0.75193ZM119.369 0.879619C119.143 0.944263 118.945 1.05893 118.781 1.22322L119.134 1.57678C119.237 1.4744 119.359 1.4024 119.506 1.36038L119.369 0.879619ZM118.781 1.22322C118.612 1.39173 118.489 1.61612 118.4 1.88094L118.875 2.03906C118.946 1.82388 119.036 1.67494 119.134 1.57678L118.781 1.22322ZM118.397 1.89309C118.321 2.16447 118.287 2.51682 118.287 2.94H118.787C118.787 2.53651 118.82 2.23553 118.878 2.02691L118.397 1.89309ZM118.287 2.94V13.06H118.787V2.94H118.287ZM124.078 14.88L123.85 14.7765L123.848 14.7824L124.078 14.88ZM123.358 15.96L123.185 15.7791L123.181 15.7832L123.358 15.96ZM122.378 16.62L122.283 16.3885L122.28 16.3898L122.378 16.62ZM121.378 16.92L121.141 16.9991L121.208 17.2017L121.419 17.1666L121.378 16.92ZM121.358 16.86L121.276 16.6239L121.043 16.7049L121.121 16.9391L121.358 16.86ZM122.078 16.42L121.908 16.2368L121.901 16.2431L121.895 16.2499L122.078 16.42ZM122.498 15.72L122.264 15.6309L122.26 15.6442L122.498 15.72ZM122.698 14.7L122.449 14.6759L122.448 14.6834L122.698 14.7ZM122.638 1.96L122.397 2.027L122.401 2.03906L122.638 1.96ZM122.338 1.4L122.152 1.56747L122.161 1.57678L122.338 1.4ZM121.878 1.12L121.809 1.36038V1.36038L121.878 1.12ZM121.258 0.999999V0.749999L121.229 1.24829L121.258 0.999999ZM125.878 0.999999L125.907 1.24829L125.878 0.749999V0.999999ZM125.258 1.12L125.326 1.36038V1.36038L125.258 1.12ZM124.778 1.4L124.601 1.22298L124.592 1.23276L124.778 1.4ZM124.478 1.96L124.24 1.88084L124.237 1.89309L124.478 1.96ZM124.128 13.24C124.128 13.8695 124.031 14.3783 123.85 14.7765L124.305 14.9834C124.524 14.5017 124.628 13.9172 124.628 13.24H124.128ZM123.848 14.7824C123.672 15.1965 123.45 15.5265 123.185 15.7792L123.53 16.1408C123.852 15.8335 124.11 15.4435 124.308 14.9776L123.848 14.7824ZM123.181 15.7832C122.91 16.0546 122.611 16.2552 122.283 16.3885L122.472 16.8515C122.865 16.6915 123.219 16.4521 123.535 16.1368L123.181 15.7832ZM122.28 16.3898C121.949 16.53 121.635 16.6238 121.337 16.6734L121.419 17.1666C121.761 17.1096 122.113 17.0034 122.475 16.8502L122.28 16.3898ZM121.615 16.8409L121.595 16.7809L121.121 16.9391L121.141 16.9991L121.615 16.8409ZM121.44 17.0961C121.775 16.9796 122.053 16.8138 122.261 16.5901L121.895 16.2499C121.756 16.3995 121.554 16.527 121.276 16.6239L121.44 17.0961ZM122.248 16.6032C122.472 16.395 122.632 16.1217 122.736 15.7958L122.26 15.6442C122.177 15.905 122.057 16.0983 121.908 16.2368L122.248 16.6032ZM122.731 15.809C122.849 15.4995 122.919 15.1336 122.947 14.7166L122.448 14.6834C122.423 15.0664 122.36 15.3805 122.264 15.631L122.731 15.809ZM122.947 14.7241C122.988 14.3005 123.008 13.8055 123.008 13.24H122.508C122.508 13.7945 122.488 14.2728 122.449 14.6759L122.947 14.7241ZM123.008 13.24V2.94H122.508V13.24H123.008ZM123.008 2.94C123.008 2.51456 122.967 2.15743 122.875 1.88094L122.401 2.03906C122.468 2.24257 122.508 2.53877 122.508 2.94H123.008ZM122.879 1.89309C122.804 1.62446 122.687 1.39529 122.515 1.22322L122.161 1.57678C122.256 1.67138 122.338 1.81554 122.397 2.02691L122.879 1.89309ZM122.524 1.23276C122.37 1.06166 122.174 0.944746 121.946 0.879619L121.809 1.36038C121.955 1.40192 122.066 1.47167 122.152 1.56724L122.524 1.23276ZM121.946 0.879619C121.745 0.822019 121.525 0.779684 121.287 0.751711L121.229 1.24829C121.444 1.27365 121.637 1.31131 121.809 1.36038L121.946 0.879619ZM121.258 1.25H125.878V0.749999H121.258V1.25ZM125.849 0.751711C125.611 0.779684 125.391 0.822019 125.189 0.879619L125.326 1.36038C125.498 1.31131 125.691 1.27365 125.907 1.24829L125.849 0.751711ZM125.189 0.879619C124.963 0.944263 124.765 1.05893 124.601 1.22322L124.955 1.57678C125.057 1.4744 125.179 1.4024 125.326 1.36038L125.189 0.879619ZM124.592 1.23276C124.442 1.39986 124.327 1.62076 124.241 1.88094L124.715 2.03906C124.788 1.81924 124.874 1.66681 124.964 1.56724L124.592 1.23276ZM124.237 1.89309C124.162 2.16447 124.128 2.51682 124.128 2.94H124.628C124.628 2.53651 124.661 2.23553 124.719 2.02691L124.237 1.89309ZM124.128 2.94V13.24H124.628V2.94H124.128ZM140.543 11.2L140.316 11.0948L140.315 11.0963L140.543 11.2ZM138.883 13.48L139.048 13.6675L139.048 13.6672L138.883 13.48ZM136.543 14.84L136.461 14.6039L136.459 14.6043L136.543 14.84ZM131.183 14.84L131.099 15.0757L131.101 15.0761L131.183 14.84ZM128.863 13.48L128.695 13.6657L128.697 13.6675L128.863 13.48ZM127.203 11.2L126.975 11.3025L126.977 11.3064L127.203 11.2ZM127.203 4.8L126.977 4.69354L126.975 4.6963L127.203 4.8ZM128.863 2.52L128.697 2.33274L128.695 2.33436L128.863 2.52ZM131.203 1.16L131.283 1.39681L131.285 1.39608L131.203 1.16ZM136.563 1.16L136.479 1.39572L136.484 1.39717L136.563 1.16ZM140.543 4.8L140.315 4.90371L140.317 4.90645L140.543 4.8ZM128.743 10.38L128.508 10.4645L128.508 10.4654L128.743 10.38ZM130.183 12.96L129.992 13.1215L129.994 13.1236L130.183 12.96ZM132.203 14.52L132.098 14.7468L132.102 14.7489L132.203 14.52ZM136.383 14.64L136.287 14.4089L136.383 14.64ZM138.003 13.5L137.821 13.328L137.819 13.3306L138.003 13.5ZM139.143 11.62L138.91 11.5286L138.909 11.5322L139.143 11.62ZM139.583 9L139.333 8.99747V9H139.583ZM139.023 5.52L138.788 5.60644L138.79 5.61016L139.023 5.52ZM137.523 3L137.339 3.16927L137.341 3.17123L137.523 3ZM135.443 1.5L135.341 1.72815L135.344 1.72958L135.443 1.5ZM131.263 1.34L131.351 1.57391L131.356 1.57212L131.263 1.34ZM129.683 2.4L129.501 2.22834L129.683 2.4ZM128.583 4.2L128.35 4.10938L128.348 4.11317L128.583 4.2ZM140.933 8C140.933 9.18404 140.725 10.2136 140.316 11.0948L140.77 11.3052C141.214 10.3464 141.433 9.24263 141.433 8H140.933ZM140.315 11.0963C139.915 11.9736 139.382 12.7044 138.717 13.2928L139.048 13.6672C139.77 13.029 140.344 12.2398 140.77 11.3037L140.315 11.0963ZM138.717 13.2925C138.062 13.8705 137.311 14.3076 136.461 14.6039L136.625 15.0761C137.535 14.759 138.343 14.2895 139.048 13.6675L138.717 13.2925ZM136.459 14.6043C135.619 14.9016 134.761 15.05 133.883 15.05V15.55C134.818 15.55 135.733 15.3917 136.626 15.0757L136.459 14.6043ZM133.883 15.05C132.991 15.05 132.119 14.9015 131.265 14.6039L131.101 15.0761C132.007 15.3918 132.934 15.55 133.883 15.55V15.05ZM131.266 14.6043C130.429 14.3082 129.684 13.8711 129.028 13.2925L128.697 13.6675C129.402 14.2889 130.203 14.7585 131.099 15.0757L131.266 14.6043ZM129.03 13.2944C128.377 12.7053 127.843 11.973 127.429 11.0936L126.977 11.3064C127.416 12.2403 127.988 13.0281 128.695 13.6656L129.03 13.2944ZM127.431 11.0975C127.035 10.2156 126.833 9.18506 126.833 8H126.333C126.333 9.24161 126.544 10.3444 126.975 11.3025L127.431 11.0975ZM126.833 8C126.833 6.80105 127.035 5.77119 127.43 4.9037L126.975 4.6963C126.544 5.64214 126.333 6.74562 126.333 8H126.833ZM127.429 4.90645C127.843 4.02697 128.377 3.29473 129.03 2.70564L128.695 2.33436C127.988 2.97194 127.416 3.75969 126.977 4.69355L127.429 4.90645ZM129.028 2.70725C129.697 2.11569 130.448 1.67934 131.283 1.3968L131.123 0.923195C130.224 1.22732 129.415 1.69764 128.697 2.33275L129.028 2.70725ZM131.285 1.39608C132.139 1.09837 133.005 0.949999 133.883 0.949999V0.449999C132.947 0.449999 132.026 0.6083 131.121 0.923923L131.285 1.39608ZM133.883 0.949999C134.774 0.949999 135.64 1.0985 136.479 1.39568L136.646 0.924319C135.753 0.608168 134.831 0.449999 133.883 0.449999V0.949999ZM136.484 1.39717C137.331 1.67975 138.081 2.1157 138.735 2.70564L139.07 2.33436C138.364 1.69763 137.554 1.22692 136.642 0.922828L136.484 1.39717ZM138.735 2.70564C139.388 3.2941 139.915 4.0254 140.315 4.9037L140.77 4.6963C140.344 3.76127 139.778 2.97256 139.07 2.33436L138.735 2.70564ZM140.317 4.90645C140.725 5.77321 140.933 6.80205 140.933 8H141.433C141.433 6.74461 141.214 5.64013 140.769 4.69355L140.317 4.90645ZM127.933 6.72C127.933 8.14145 128.122 9.39122 128.508 10.4645L128.978 10.2955C128.617 9.28877 128.433 8.09855 128.433 6.72H127.933ZM128.508 10.4654C128.889 11.5144 129.383 12.4016 129.992 13.1215L130.374 12.7985C129.81 12.1318 129.343 11.2989 128.978 10.2946L128.508 10.4654ZM129.994 13.1236C130.614 13.8406 131.315 14.3836 132.098 14.7468L132.308 14.2932C131.597 13.9631 130.951 13.4661 130.372 12.7964L129.994 13.1236ZM132.102 14.7489C132.891 15.0949 133.685 15.27 134.483 15.27V14.77C133.76 14.77 133.035 14.6118 132.303 14.2911L132.102 14.7489ZM134.483 15.27C135.169 15.27 135.835 15.1367 136.478 14.8711L136.287 14.4089C135.704 14.65 135.103 14.77 134.483 14.77V15.27ZM136.478 14.8711C137.126 14.6033 137.696 14.2017 138.187 13.6694L137.819 13.3306C137.376 13.8116 136.866 14.17 136.287 14.4089L136.478 14.8711ZM138.184 13.6719C138.69 13.1378 139.087 12.4813 139.377 11.7078L138.909 11.5322C138.639 12.252 138.275 12.8489 137.821 13.3281L138.184 13.6719ZM139.376 11.7114C139.683 10.9294 139.833 10.0238 139.833 9H139.333C139.333 9.97615 139.19 10.8172 138.91 11.5286L139.376 11.7114ZM139.833 9.00252C139.846 7.65794 139.656 6.46536 139.256 5.42984L138.79 5.61016C139.163 6.57464 139.346 7.70206 139.333 8.99747L139.833 9.00252ZM139.257 5.43357C138.875 4.39433 138.358 3.5239 137.705 2.82877L137.341 3.17123C137.941 3.80944 138.424 4.619 138.788 5.60643L139.257 5.43357ZM137.707 2.83074C137.072 2.1402 136.35 1.61869 135.542 1.27042L135.344 1.72958C136.083 2.04798 136.747 2.52647 137.339 3.16926L137.707 2.83074ZM135.545 1.27187C134.743 0.912182 133.935 0.729999 133.123 0.729999V1.23C133.858 1.23 134.596 1.39448 135.341 1.72813L135.545 1.27187ZM133.123 0.729999C132.451 0.729999 131.799 0.856186 131.17 1.10788L131.356 1.57212C131.926 1.34381 132.515 1.23 133.123 1.23V0.729999ZM131.174 1.10613C130.538 1.34659 129.98 1.72163 129.501 2.22834L129.865 2.57165C130.293 2.11837 130.788 1.78674 131.351 1.57387L131.174 1.10613ZM129.501 2.22834C129.022 2.73543 128.64 3.36436 128.35 4.10939L128.816 4.29061C129.086 3.59564 129.437 3.02457 129.865 2.57165L129.501 2.22834ZM128.348 4.11317C128.069 4.86694 127.933 5.73749 127.933 6.72H128.433C128.433 5.78251 128.563 4.97306 128.817 4.28683L128.348 4.11317ZM145.298 14.04L145.056 14.107L145.06 14.1191L145.298 14.04ZM145.618 14.6L145.794 14.4232L145.618 14.6ZM146.098 14.88L146.029 15.1204L146.098 14.88ZM146.698 15V15.25L146.729 14.7519L146.698 15ZM142.098 15L142.068 14.7517L142.098 15.25V15ZM142.718 14.88L142.786 15.1204L142.718 14.88ZM143.178 14.6L143.001 14.423L142.992 14.4328L143.178 14.6ZM143.478 14.04L143.24 13.9608L143.237 13.9731L143.478 14.04ZM143.478 1.96L143.236 2.027L143.24 2.03906L143.478 1.96ZM143.178 1.4L142.992 1.56747L143.001 1.57678L143.178 1.4ZM142.718 1.12L142.649 1.36038V1.36038L142.718 1.12ZM142.098 0.999999V0.749999L142.068 1.24829L142.098 0.999999ZM146.698 0.999999L146.729 1.24807L146.698 0.749999V0.999999ZM146.098 1.12L146.166 1.36038V1.36038L146.098 1.12ZM145.618 1.4L145.794 1.57678V1.57678L145.618 1.4ZM145.298 1.96L145.06 1.88084L145.057 1.89309L145.298 1.96ZM144.948 13.06C144.948 13.4832 144.981 13.8355 145.057 14.1069L145.539 13.9731C145.481 13.7645 145.448 13.4635 145.448 13.06H144.948ZM145.06 14.1191C145.149 14.3839 145.272 14.6083 145.441 14.7768L145.794 14.4232C145.696 14.3251 145.607 14.1761 145.535 13.9609L145.06 14.1191ZM145.441 14.7768C145.605 14.9411 145.803 15.0557 146.029 15.1204L146.166 14.6396C146.019 14.5976 145.897 14.5256 145.794 14.4232L145.441 14.7768ZM146.029 15.1204C146.229 15.1776 146.442 15.22 146.667 15.2481L146.729 14.7519C146.527 14.7267 146.339 14.6891 146.166 14.6396L146.029 15.1204ZM146.698 14.75H142.098V15.25H146.698V14.75ZM142.127 15.2483C142.365 15.2203 142.585 15.178 142.786 15.1204L142.649 14.6396C142.477 14.6887 142.284 14.7264 142.068 14.7517L142.127 15.2483ZM142.786 15.1204C143.014 15.0553 143.209 14.9383 143.363 14.7672L142.992 14.4328C142.906 14.5283 142.794 14.5981 142.649 14.6396L142.786 15.1204ZM143.354 14.7768C143.526 14.6047 143.644 14.3755 143.719 14.1069L143.237 13.9731C143.178 14.1845 143.095 14.3286 143.001 14.4232L143.354 14.7768ZM143.715 14.1191C143.807 13.8426 143.848 13.4854 143.848 13.06H143.348C143.348 13.4612 143.308 13.7574 143.24 13.9609L143.715 14.1191ZM143.848 13.06V2.94H143.348V13.06H143.848ZM143.848 2.94C143.848 2.51456 143.807 2.15743 143.715 1.88094L143.24 2.03906C143.308 2.24257 143.348 2.53877 143.348 2.94H143.848ZM143.719 1.89309C143.644 1.62446 143.526 1.39529 143.354 1.22322L143.001 1.57678C143.095 1.67138 143.178 1.81554 143.237 2.02691L143.719 1.89309ZM143.363 1.23276C143.209 1.06166 143.014 0.944746 142.786 0.879619L142.649 1.36038C142.794 1.40192 142.906 1.47167 142.992 1.56724L143.363 1.23276ZM142.786 0.879619C142.585 0.822019 142.365 0.779684 142.127 0.751711L142.068 1.24829C142.284 1.27365 142.477 1.31131 142.649 1.36038L142.786 0.879619ZM142.098 1.25H146.698V0.749999H142.098V1.25ZM146.667 0.75193C146.442 0.780022 146.229 0.822407 146.029 0.879619L146.166 1.36038C146.339 1.31093 146.527 1.27331 146.729 1.24807L146.667 0.75193ZM146.029 0.879619C145.803 0.944263 145.605 1.05893 145.441 1.22322L145.794 1.57678C145.897 1.4744 146.019 1.4024 146.166 1.36038L146.029 0.879619ZM145.441 1.22322C145.272 1.39173 145.149 1.61612 145.06 1.88094L145.535 2.03906C145.607 1.82388 145.696 1.67494 145.794 1.57678L145.441 1.22322ZM145.057 1.89309C144.981 2.16447 144.948 2.51682 144.948 2.94H145.448C145.448 2.53651 145.481 2.23553 145.539 2.02691L145.057 1.89309ZM144.948 2.94V13.06H145.448V2.94H144.948ZM165.177 13.04L165.401 13.1518L165.402 13.1496L165.177 13.04ZM164.097 14.42L164.259 14.6106L164.259 14.6102L164.097 14.42ZM162.557 15.28L162.477 15.0434L162.475 15.0439L162.557 15.28ZM158.897 15.28L158.973 15.0418L158.97 15.0408L158.897 15.28ZM157.157 14.4L157.01 14.6018L157.157 14.4ZM155.657 12.88L155.456 13.0286L155.657 12.88ZM154.577 10.68L154.816 10.6054L154.812 10.5946L154.577 10.68ZM154.497 10.46L154.732 10.3746L154.672 10.21H154.497V10.46ZM150.097 10.46V10.21H149.913L149.858 10.3857L150.097 10.46ZM149.717 11.68L149.478 11.6057L149.941 11.7918L149.717 11.68ZM149.737 11.64L149.976 11.7141L149.514 11.5282L149.737 11.64ZM149.317 13.46L149.068 13.4374L149.317 13.46ZM149.437 14.46L149.216 14.577L149.219 14.5826L149.437 14.46ZM149.997 14.88L149.933 15.1221L149.946 15.1246L149.997 14.88ZM150.897 15V15.25L150.916 14.7507L150.897 15ZM146.637 15L146.612 14.7512L146.637 15.25V15ZM147.637 14.82L147.709 15.0596L147.716 15.0572L147.637 14.82ZM148.377 14.32L148.564 14.4862L148.568 14.481L148.377 14.32ZM148.977 13.28L149.207 13.3776L149.208 13.3752L148.977 13.28ZM149.617 11.48L149.855 11.5565L149.856 11.5549L149.617 11.48ZM152.997 0.719999V0.469999H152.814L152.759 0.645077L152.997 0.719999ZM153.097 0.719999L153.335 0.644472L153.28 0.469999H153.097V0.719999ZM156.057 10.06L156.297 9.99038L156.296 9.98447L156.057 10.06ZM157.057 12.44L156.843 12.5687L156.846 12.5737L157.057 12.44ZM158.397 14.06L158.231 14.2469L158.234 14.2494L158.397 14.06ZM159.897 14.98L159.807 15.2133L159.809 15.2141L159.897 14.98ZM162.657 15.06L162.576 14.8235L162.569 14.8263L162.657 15.06ZM163.657 14.48L163.494 14.2907L163.489 14.2946L163.657 14.48ZM164.337 13.54L164.11 13.4347L164.107 13.4415L164.337 13.54ZM164.037 10.56L163.838 10.7109L163.84 10.7135L164.037 10.56ZM162.637 9.26L162.495 9.46575L162.499 9.46801L162.637 9.26ZM160.797 8.18L160.68 8.4009L160.685 8.40361L160.797 8.18ZM158.977 7.08L158.832 7.28346L158.835 7.28572L158.977 7.08ZM157.577 5.76L157.378 5.91087L157.38 5.91348L157.577 5.76ZM157.337 2.54L157.118 2.41978L157.117 2.42235L157.337 2.54ZM158.217 1.54L158.361 1.74446L158.362 1.74343L158.217 1.54ZM159.477 0.96L159.415 0.717876L159.477 0.96ZM164.357 1.9L164.606 1.92761L164.62 1.79709L164.521 1.71108L164.357 1.9ZM164.077 4.42H163.827L164.326 4.44761L164.077 4.42ZM163.797 2.86L163.564 2.95166L163.567 2.95764L163.797 2.86ZM163.097 1.78L162.916 1.95281L162.925 1.96084L163.097 1.78ZM162.137 1.14L162.043 1.37164L162.05 1.37444L162.137 1.14ZM160.057 1.1L160.136 1.33733L160.145 1.33408L160.057 1.1ZM159.197 1.58L159.352 1.77632L159.358 1.77123L159.197 1.58ZM158.897 4.88L158.703 5.03774L158.709 5.04419L158.897 4.88ZM160.237 6.02L160.373 5.81039L160.237 6.02ZM161.977 7.04L161.86 7.26075L161.863 7.26265L161.977 7.04ZM163.717 8.1L163.57 8.3024V8.3024L163.717 8.1ZM165.037 9.42L164.833 9.56376L164.835 9.56737L165.037 9.42ZM150.137 10.3L149.899 10.2248L149.796 10.55H150.137V10.3ZM154.457 10.3V10.55H154.794L154.696 10.2273L154.457 10.3ZM152.337 3.32L152.576 3.24734L152.342 2.47432L152.099 3.24485L152.337 3.32ZM165.327 11.18C165.327 11.8407 165.2 12.4224 164.952 12.9304L165.402 13.1496C165.687 12.5643 165.827 11.906 165.827 11.18H165.327ZM164.954 12.9282C164.702 13.4316 164.363 13.8649 163.935 14.2298L164.259 14.6102C164.738 14.2018 165.119 13.7151 165.401 13.1518L164.954 12.9282ZM163.935 14.2294C163.521 14.581 163.036 14.8527 162.477 15.0434L162.638 15.5166C163.252 15.3073 163.793 15.0057 164.259 14.6106L163.935 14.2294ZM162.475 15.0439C161.929 15.2344 161.357 15.33 160.757 15.33V15.83C161.411 15.83 162.039 15.7256 162.64 15.5161L162.475 15.0439ZM160.757 15.33C160.171 15.33 159.577 15.2346 158.973 15.0418L158.821 15.5182C159.471 15.7254 160.116 15.83 160.757 15.83V15.33ZM158.97 15.0408C158.385 14.8628 157.83 14.5826 157.305 14.1982L157.01 14.6018C157.578 15.0174 158.183 15.3239 158.824 15.5192L158.97 15.0408ZM157.305 14.1982C156.781 13.8149 156.298 13.3269 155.858 12.7314L155.456 13.0286C155.923 13.6597 156.44 14.1851 157.01 14.6018L157.305 14.1982ZM155.858 12.7314C155.424 12.144 155.076 11.4366 154.816 10.6054L154.339 10.7546C154.612 11.63 154.984 12.3894 155.456 13.0286L155.858 12.7314ZM154.812 10.5946L154.732 10.3746L154.262 10.5454L154.342 10.7654L154.812 10.5946ZM154.497 10.21H150.097V10.71H154.497V10.21ZM149.858 10.3857L149.478 11.6057L149.956 11.7543L150.336 10.5343L149.858 10.3857ZM149.941 11.7918L149.961 11.7518L149.514 11.5282L149.494 11.5682L149.941 11.7918ZM149.498 11.5659C149.257 12.3446 149.111 12.9711 149.068 13.4374L149.566 13.4826C149.604 13.0689 149.738 12.4821 149.976 11.7141L149.498 11.5659ZM149.068 13.4374C149.027 13.8948 149.062 14.2865 149.216 14.577L149.658 14.343C149.572 14.1802 149.528 13.9052 149.566 13.4826L149.068 13.4374ZM149.219 14.5826C149.375 14.8593 149.62 15.0392 149.934 15.1218L150.061 14.6382C149.868 14.5874 149.739 14.4873 149.655 14.3374L149.219 14.5826ZM149.946 15.1246C150.213 15.1808 150.524 15.222 150.878 15.2493L150.916 14.7507C150.577 14.7246 150.288 14.6858 150.049 14.6354L149.946 15.1246ZM150.897 14.75H146.637V15.25H150.897V14.75ZM146.662 15.2488C147.072 15.2078 147.422 15.1456 147.709 15.0595L147.565 14.5805C147.319 14.6544 147.003 14.7122 146.612 14.7512L146.662 15.2488ZM147.716 15.0572C148.041 14.9488 148.324 14.7558 148.564 14.4861L148.19 14.1539C148.003 14.3642 147.793 14.5045 147.558 14.5828L147.716 15.0572ZM148.568 14.481C148.803 14.2022 149.015 13.8314 149.207 13.3776L148.747 13.1824C148.566 13.6086 148.378 13.9311 148.186 14.159L148.568 14.481ZM149.208 13.3752C149.399 12.9132 149.614 12.3062 149.855 11.5565L149.379 11.4035C149.14 12.1471 148.929 12.7401 148.746 13.1848L149.208 13.3752ZM149.856 11.5549L153.236 0.794921L152.759 0.645077L149.379 11.4051L149.856 11.5549ZM152.997 0.969999H153.097V0.469999H152.997V0.969999ZM152.859 0.795526L155.819 10.1355L156.296 9.98447L153.335 0.644472L152.859 0.795526ZM155.817 10.1296C156.088 11.0657 156.43 11.8798 156.843 12.5686L157.272 12.3114C156.885 11.6669 156.559 10.8943 156.297 9.9904L155.817 10.1296ZM156.846 12.5737C157.269 13.2429 157.73 13.8019 158.231 14.2469L158.563 13.8731C158.104 13.4648 157.672 12.9438 157.268 12.3063L156.846 12.5737ZM158.234 14.2494C158.733 14.679 159.257 15.0017 159.807 15.2133L159.987 14.7467C159.497 14.5583 159.021 14.2677 158.56 13.8706L158.234 14.2494ZM159.809 15.2141C160.367 15.423 160.91 15.53 161.437 15.53V15.03C160.978 15.03 160.495 14.937 159.985 14.7459L159.809 15.2141ZM161.437 15.53C161.893 15.53 162.33 15.4515 162.746 15.2937L162.569 14.8263C162.211 14.9618 161.835 15.03 161.437 15.03V15.53ZM162.739 15.2963C163.155 15.1529 163.518 14.9432 163.825 14.6654L163.489 14.2946C163.236 14.5235 162.933 14.7004 162.576 14.8237L162.739 15.2963ZM163.821 14.6692C164.144 14.3899 164.393 14.045 164.567 13.6385L164.107 13.4415C163.962 13.7817 163.757 14.0635 163.494 14.2908L163.821 14.6692ZM164.564 13.6453C164.754 13.2357 164.847 12.786 164.847 12.3H164.347C164.347 12.7207 164.267 13.0976 164.11 13.4347L164.564 13.6453ZM164.847 12.3C164.847 11.5713 164.646 10.9356 164.235 10.4065L163.84 10.7135C164.175 11.1444 164.347 11.6687 164.347 12.3H164.847ZM164.237 10.4091C163.845 9.89162 163.357 9.43948 162.776 9.05199L162.499 9.46801C163.037 9.82719 163.483 10.2417 163.838 10.7109L164.237 10.4091ZM162.779 9.05428C162.209 8.66035 161.585 8.29448 160.909 7.95639L160.685 8.40361C161.343 8.73219 161.946 9.08631 162.495 9.46572L162.779 9.05428ZM160.914 7.95916C160.269 7.61666 159.671 7.25498 159.119 6.87428L158.835 7.28572C159.404 7.67836 160.019 8.05001 160.68 8.40084L160.914 7.95916ZM159.122 6.87657C158.58 6.4888 158.131 6.06512 157.775 5.60651L157.38 5.91348C157.77 6.41488 158.255 6.8712 158.832 7.28343L159.122 6.87657ZM157.777 5.60914C157.44 5.16444 157.267 4.62578 157.267 3.98H156.767C156.767 4.72089 156.968 5.3689 157.378 5.91086L157.777 5.60914ZM157.267 3.98C157.267 3.45152 157.368 3.01388 157.558 2.65765L157.117 2.42235C156.88 2.86612 156.767 3.38848 156.767 3.98H157.267ZM157.556 2.66021C157.766 2.27791 158.034 1.97428 158.361 1.74445L158.073 1.33555C157.68 1.61238 157.362 1.97542 157.118 2.41979L157.556 2.66021ZM158.362 1.74343C158.71 1.49556 159.101 1.31484 159.539 1.20212L159.415 0.717876C158.92 0.845156 158.472 1.05111 158.072 1.33657L158.362 1.74343ZM159.539 1.20212C159.985 1.08748 160.444 1.03 160.917 1.03V0.529999C160.403 0.529999 159.902 0.592522 159.415 0.717876L159.539 1.20212ZM160.917 1.03C161.558 1.03 162.172 1.12611 162.76 1.31768L162.915 0.842317C162.275 0.633886 161.609 0.529999 160.917 0.529999V1.03ZM162.76 1.31768C163.348 1.50955 163.824 1.76832 164.193 2.08892L164.521 1.71108C164.091 1.33835 163.553 1.05045 162.915 0.842317L162.76 1.31768ZM164.109 1.87239L163.829 4.39239L164.326 4.44761L164.606 1.92761L164.109 1.87239ZM164.327 4.42C164.327 3.79472 164.23 3.24005 164.027 2.76236L163.567 2.95764C163.738 3.35995 163.827 3.84528 163.827 4.42H164.327ZM164.03 2.76837C163.845 2.3002 163.593 1.90802 163.27 1.59916L162.925 1.96084C163.188 2.21198 163.402 2.5398 163.565 2.95163L164.03 2.76837ZM163.278 1.60738C162.973 1.28815 162.622 1.05283 162.224 0.905562L162.05 1.37444C162.373 1.49383 162.661 1.68518 162.916 1.95262L163.278 1.60738ZM162.232 0.908477C161.843 0.75012 161.444 0.669999 161.037 0.669999V1.17C161.377 1.17 161.712 1.23655 162.043 1.37152L162.232 0.908477ZM161.037 0.669999C160.673 0.669999 160.317 0.735662 159.969 0.865917L160.145 1.33408C160.438 1.22434 160.735 1.17 161.037 1.17V0.669999ZM159.978 0.862828C159.629 0.979301 159.314 1.1547 159.036 1.38877L159.358 1.77123C159.587 1.57863 159.846 1.43403 160.136 1.33717L159.978 0.862828ZM159.042 1.38378C158.757 1.60871 158.534 1.89289 158.372 2.23214L158.823 2.44786C158.954 2.17378 159.13 1.95129 159.352 1.77622L159.042 1.38378ZM158.372 2.23214C158.206 2.57793 158.127 2.96922 158.127 3.4H158.627C158.627 3.03078 158.695 2.71541 158.823 2.44786L158.372 2.23214ZM158.127 3.4C158.127 4.01625 158.32 4.56552 158.703 5.03765L159.091 4.72235C158.781 4.34114 158.627 3.90375 158.627 3.4H158.127ZM158.709 5.04419C159.086 5.47756 159.551 5.87228 160.101 6.22961L160.373 5.81039C159.857 5.47439 159.428 5.10911 159.086 4.7158L158.709 5.04419ZM160.101 6.22961C160.641 6.58068 161.227 6.92435 161.86 7.26072L162.095 6.81928C161.474 6.48899 160.9 6.15266 160.373 5.81039L160.101 6.22961ZM161.863 7.26265C162.479 7.57716 163.048 7.92382 163.57 8.3024L163.864 7.8976C163.319 7.50284 162.728 7.14284 162.091 6.81735L161.863 7.26265ZM163.57 8.3024C164.083 8.67434 164.503 9.09502 164.833 9.56374L165.242 9.27626C164.878 8.75832 164.418 8.29899 163.864 7.8976L163.57 8.3024ZM164.835 9.56737C165.16 10.0131 165.327 10.5467 165.327 11.18H165.827C165.827 10.4533 165.634 9.81358 165.239 9.27263L164.835 9.56737ZM150.137 10.55H154.457V10.05H150.137V10.55ZM154.696 10.2273L152.576 3.24734L152.098 3.39265L154.218 10.3727L154.696 10.2273ZM152.099 3.24485L149.899 10.2248L150.376 10.3752L152.576 3.39515L152.099 3.24485Z" fill="#A78629"/>
</svg>
